<svg width="84" height="64" viewBox="0 0 84 64" fill="none" xmlns="http://www.w3.org/2000/svg">
<path d="M1.94141 41.5978L4.18753 48.079C4.4222 48.7572 4.83287 49.3601 5.38602 49.8123L9.36701 53.1366C9.64359 53.3711 9.96207 53.5386 10.3057 53.6391C12.5686 54.2838 21.6536 56.9801 24.9977 59.7267C25.4586 60.1035 26.0034 60.3715 26.5984 60.4552C30.0179 60.9325 41.2737 62.4481 41.852 61.728C41.852 61.728 52.7306 65.471 56.0327 62.4732C59.3348 59.4755 56.0327 61.9373 56.0327 61.9373C56.0327 61.9373 62.704 61.1251 63.7935 58.1859C64.0617 57.4658 64.7071 56.9466 65.4614 56.7792L73.767 54.9035C74.4626 54.7444 75.0744 54.3424 75.4935 53.773L80.8406 46.4545L1.94141 41.5811V41.5978Z" fill="#817B20"/>
<path d="M6.28299 43.2972C6.83614 43.3224 7.25519 43.7997 7.25519 44.3523C7.25519 45.8763 7.95082 48.2796 11.9989 49.2174C15.368 49.9961 17.2705 50.2641 18.3098 50.3478C18.9048 50.3981 19.3826 50.8586 19.4664 51.4532C19.7094 53.1781 20.8912 56.3433 26.3388 56.3433C33.3705 56.3433 32.6665 59.6761 38.9942 56.9546C39.7401 56.6364 40.6118 56.8793 41.0979 57.524C42.0701 58.8136 43.8804 60.639 46.093 60.2622C49.4454 59.6928 52.2949 58.4116 52.2949 58.4116C52.2949 58.4116 59.4272 58.6963 61.2794 56.8458C62.2684 55.8577 62.545 54.9115 62.5952 54.2416C62.6288 53.7224 63.0562 53.3205 63.5758 53.3288C65.2688 53.354 68.4117 53.1865 68.9816 51.6709C68.9816 51.6709 76.3318 51.361 77.4716 49.0081C78.2427 47.4171 79.8686 46.7388 80.8324 46.4625C81.3101 46.3285 81.6537 45.9182 81.704 45.4241C81.7962 44.4444 81.8884 42.9121 81.6035 42.3008C81.176 41.3713 86.3387 41.0196 81.7962 35.8196C77.2537 30.6196 71.3367 30.1172 71.3367 30.1172C71.3367 30.1172 65.7717 21.7101 56.0748 21.7101C56.0748 21.7101 49.5124 17.2888 43.5954 18.7877C37.6784 20.2865 33.1107 20.7806 33.1107 20.7806C33.1107 20.7806 22.1986 19.2817 15.9882 26.1983C15.9882 26.1983 10.6411 31.0466 9.99579 31.9677C9.35045 32.8888 2.29361 32.2524 1.93323 36.1043V35.7442C1.93323 35.7442 -2.41654 38.9513 1.93323 41.589C4.07878 42.8869 5.44489 43.2554 6.27461 43.2889L6.28299 43.2972Z" fill="#34A53A"/>
<path d="M48.2725 49.6366L42.2716 45.8433C41.9113 45.6172 41.4587 45.5754 41.0648 45.7429L34.5359 48.5313C33.547 48.9499 32.5077 48.0623 32.7675 47.0156L34.5276 40.1409C34.6365 39.7306 34.5276 39.2868 34.251 38.9686L29.5827 33.6262C28.8787 32.814 29.4067 31.5496 30.4795 31.4826L37.5699 31.0304C37.9973 31.0053 38.3828 30.7708 38.6007 30.4024L42.2465 24.3148C42.7996 23.3937 44.1658 23.5025 44.568 24.499L47.1913 31.0974C47.3506 31.491 47.6942 31.784 48.1049 31.8845L55.0276 33.4671C56.0752 33.71 56.3937 35.0414 55.564 35.728L50.0995 40.2581C49.7727 40.5345 49.5967 40.9448 49.6386 41.3718L50.2755 48.4392C50.3677 49.511 49.1944 50.2227 48.2892 49.6533L48.2725 49.6366Z" fill="#62C5EB"/>
<path d="M71.2785 30.6033C70.8594 30.5782 70.4487 30.7289 70.1554 31.0387C68.7641 32.5041 64.9675 36.9254 69.9207 36.7579C75.8629 36.5569 76.5501 34.4217 75.8629 33.1907C75.1756 31.9598 75.3181 30.8545 71.2868 30.6033H71.2785Z" fill="#C9CCCB"/>
<path d="M67.5988 36.8418C66.9032 36.7161 66.1908 36.9757 65.7215 37.5116C64.7912 38.5835 63.5843 40.3922 66.4339 40.0823C70.4484 39.6553 69.5935 38.4411 69.5935 38.4411C69.5935 38.4411 69.4762 37.1851 67.5988 36.8418Z" fill="#C9CCCB"/>
<path d="M12.2505 36.4985C12.2505 36.4985 6.90342 43.0718 13.5915 42.3265C20.2796 41.5813 17.9748 38.2151 17.9748 38.2151C17.9748 38.2151 15.3012 33.6682 12.2505 36.5068V36.4985Z" fill="#C9CCCB"/>
<path d="M16.81 41.3801C16.5335 41.8574 16.7095 42.477 17.162 42.7868C18.1761 43.4735 20.4223 44.629 22.0314 42.7031C23.7831 40.6013 20.8581 39.8979 19.7434 39.7137C19.4752 39.6718 19.207 39.697 18.9556 39.7974C18.3689 40.0403 17.2626 40.5929 16.8016 41.3801H16.81Z" fill="#C9CCCB"/>
<path d="M35.0299 20.9984C35.2813 21.2999 35.6753 21.4673 36.0692 21.4422C38.3404 21.2999 46.403 20.8477 48.7413 21.2161C51.4735 21.6432 50.8533 15.5221 46.118 17.4229C46.118 17.4229 43.0673 13.9981 40.9302 17.3726C40.9302 17.3726 36.5972 16.8953 37.1838 18.972C37.1838 18.972 32.767 18.3021 35.0299 21.0068V20.9984Z" fill="#249A38"/>
<path d="M57.6166 23.6952C57.7675 24.0804 58.0776 24.3986 58.4631 24.5494C59.737 25.0518 62.7291 26.199 63.6007 26.2408C64.7238 26.2911 67.5398 23.3184 63.6007 22.7155C63.6007 22.7155 63.2822 19.6508 60.441 21.4511C60.441 21.4511 55.5717 18.5538 57.6082 23.6952H57.6166Z" fill="#249A38"/>
<path d="M10.0962 32.872C10.5069 32.9557 10.9343 32.872 11.2779 32.6292C12.3926 31.8337 14.9823 29.958 15.4936 29.2462C16.1473 28.3335 15.1919 24.3477 12.5351 27.3203C12.5351 27.3203 9.7861 25.9219 9.75257 29.2714C9.75257 29.2714 4.67366 31.7751 10.0962 32.8636V32.872Z" fill="#249A38"/>
<path d="M24.6875 23.3268C24.6875 23.3268 21.5279 18.1436 20.4635 17.8505C19.3991 17.5574 21.7458 22.4727 21.7458 22.4727L24.9809 26.2409L24.6875 23.3268Z" fill="#5A9132"/>
<path d="M28.9035 21.9532C28.9035 21.9532 32.7588 13.1106 35.2228 12.5496C37.6868 11.9885 30.4121 23.2427 31.0491 24.281L27.8643 25.671L28.9035 21.9532Z" fill="#5A9132"/>
<path d="M23.0454 27.3789L20.8076 21.1071C20.8076 21.1071 24.1768 24.3142 24.1768 25.654V16.4597H25.2999L26.4732 24.758C26.49 24.8752 26.666 24.8836 26.6827 24.758C27.0599 21.6932 28.4427 10.6652 28.9959 10.2549L30.119 10.5228C30.119 10.5228 27.9734 23.8871 29.2641 24.9506L32.0885 23.6945C32.0885 23.6945 32.1304 23.7113 32.122 23.728L30.7056 26.6504C30.5464 26.9854 30.2195 27.2198 29.8424 27.2533L23.9254 27.9148C23.5398 27.9567 23.1795 27.7306 23.0454 27.3622V27.3789Z" fill="#148036"/>
<path d="M23.0195 6.76302V5.54884C23.0195 5.54884 23.3044 4.61937 23.6983 5.54884L24.0923 6.47831C24.0923 6.47831 25.341 6.72952 25.45 8.72244C25.5422 10.4558 26.0953 14.6845 26.2378 15.773C26.2713 16.0159 26.1959 16.2587 26.0115 16.4262C25.7852 16.6355 25.3746 16.8197 24.6454 16.7192C23.2374 16.5267 23.0949 15.3878 23.0195 14.8184C22.9441 14.249 22.0557 7.83484 22.0557 7.83484C22.0557 7.83484 22.0557 6.94724 23.0195 6.76302Z" fill="#8C5B22"/>
<path d="M30.7644 1.42103L31.1835 0.282221C31.1835 0.282221 31.7702 -0.488152 31.8204 0.516683L31.8707 1.52152C31.8707 1.52152 32.9603 2.18303 32.3736 4.09222C31.8623 5.75019 30.932 9.91188 30.689 10.9837C30.6387 11.2182 30.4795 11.4275 30.2532 11.5196C29.9682 11.6368 29.524 11.6787 28.8703 11.327C27.6132 10.6655 27.873 9.54344 27.9987 8.98241C28.1244 8.42138 29.4905 2.09092 29.4905 2.09092C29.4905 2.09092 29.7922 1.25356 30.7644 1.42103Z" fill="#8C5B22"/>
<path d="M10.6164 39.0186C10.6164 39.0186 9.61068 41.539 10.8259 42.0917C12.0412 42.6443 14.6058 42.2089 14.6058 42.2089C14.6058 42.2089 12.0915 42.5857 11.312 41.4804C10.5326 40.3751 10.608 39.0186 10.608 39.0186H10.6164Z" fill="#B1B5B6"/>
<path d="M52.9994 54.1082C53.3346 54.351 53.7621 54.4515 54.1727 54.3761C55.5221 54.1165 58.6566 53.4718 59.4109 53.0364C60.3831 52.4753 61.1542 48.456 57.5084 50.0637C57.5084 50.0637 55.5891 47.6521 54.1644 50.7001C54.1644 50.7001 48.5072 50.876 52.991 54.1165L52.9994 54.1082Z" fill="#249A38"/>
<path d="M68.2944 33.3242C68.2944 33.3242 68.1184 35.3506 68.814 35.4595C69.5096 35.5683 73.1218 36.1545 73.7085 35.7023C74.2952 35.2502 76.0636 33.835 76.0636 33.835C76.0636 33.835 76.5245 36.1545 71.63 36.6402C66.7355 37.1258 67.4563 35.5181 67.4563 35.5181C67.4563 35.5181 67.5904 34.3039 68.3027 33.3242H68.2944Z" fill="#B1B5B6"/>
</svg>
