<svg width="85" height="51" viewBox="0 0 85 51" fill="none" xmlns="http://www.w3.org/2000/svg">
<path d="M1.4152 26.9355L4.81774 35.3024C5.08859 35.9792 5.50333 36.5883 6.03656 37.0875L10.3955 41.2498C11.1234 41.9435 12.0206 42.4257 12.994 42.6457L20.3492 44.3292C20.747 44.4223 21.1279 44.583 21.4665 44.8114L24.5474 46.8587C25.4869 47.4848 26.5788 47.8147 27.7045 47.8147H36.9387C37.4127 47.8147 37.8782 47.857 38.3353 47.9501L48.3482 49.9381C49.5332 50.175 50.7605 50.0143 51.8523 49.4982L62.2292 44.5238C62.8725 44.2192 63.575 44.0585 64.286 44.0585C68.1202 44.0585 81.2733 43.3055 81.8319 32.6545L1.40674 26.9355H1.4152Z" fill="#896F1E"/>
<path d="M14.0775 13.0864C12.9349 13.7801 9.93861 15.7936 8.93139 18.4754C8.73672 18.9914 8.33891 19.406 7.81414 19.5667C4.35235 20.658 -7.50575 24.998 7.14548 29.4479C7.86492 29.6679 8.21195 30.4547 7.91571 31.1484C7.32322 32.5358 7.21319 34.7439 11.5045 35.9367C15.2625 36.9857 17.8271 37.3326 19.3421 37.4341C20.2817 37.5018 21.1196 38.0009 21.6528 38.7792C22.9732 40.7166 26.8751 43.9567 38.0307 42.7808C38.7586 42.7047 39.4696 42.9754 40.0113 43.4745C40.9423 44.329 42.8044 45.4711 45.7584 44.9042C45.7584 44.9042 48.2553 46.1902 49.8465 45.0819C50.312 44.752 50.9045 44.6927 51.4208 44.9381C52.1064 45.2596 53.0459 45.4457 53.7653 44.6166C54.0954 44.2275 54.5864 44.0075 55.1027 44.0583C56.8886 44.2105 60.799 44.1598 62.0262 40.9196C62.2548 40.3274 62.8219 39.9298 63.4567 39.879C65.1833 39.7437 68.4504 39.3207 70.4987 38.0348C70.9558 37.7471 71.4806 37.5949 72.0138 37.6964C73.0125 37.874 74.8662 37.781 76.669 35.4206C76.9906 34.9977 77.4731 34.71 77.9979 34.6846C79.3013 34.6085 81.8067 33.9232 82.3907 29.8455C82.4753 29.228 82.8139 28.6527 83.3641 28.3566C84.6844 27.646 86.3772 25.7679 79.4621 21.9863C79.0051 21.7325 78.675 21.3179 78.5057 20.8272C78.0317 19.4398 76.5928 16.5381 72.6232 15.396C72.1915 15.2691 71.8107 14.9983 71.5398 14.6346C70.5834 13.391 67.4517 10.5315 58.6152 10.0239C58.6152 10.0239 49.9735 7.64665 43.9217 7.75663L14.9916 12.7565C14.67 12.8157 14.3653 12.9257 14.086 13.0949L14.0775 13.0864Z" fill="#36A839"/>
<path d="M26.1979 2.78238C26.1979 2.78238 30.7346 -3.47798 36.2447 2.78238C36.2447 2.78238 39.1648 1.59799 40.5698 3.32382C40.5698 3.32382 42.6266 0.836594 44.4633 6.34402C44.4633 6.34402 48.3567 9.69416 46.41 12.5029C46.41 12.5029 53.0035 19.6346 42.8467 21.5719C42.8467 21.5719 36.7949 22.7563 35.6099 22.4348C35.6099 22.4348 24.8014 24.3806 21.6697 22.4941C21.6697 22.4941 14.9746 22.6548 14.9746 16.9274C14.9746 16.9274 12.0545 10.4471 18.2163 9.69416C18.2163 9.69416 16.5997 2.89236 22.7531 3.21384C22.7531 3.21384 23.0747 1.80949 26.2149 2.78238H26.1979Z" fill="#148E38"/>
<path d="M22.203 7.2071C22.203 7.2071 21.1196 9.58434 23.7181 8.82295C26.3165 8.06155 22.3808 5.92119 22.203 7.2071Z" fill="#C8D04E"/>
<path d="M20.9587 16.4955C21.5243 16.4955 21.9829 16.0372 21.9829 15.4719C21.9829 14.9065 21.5243 14.4482 20.9587 14.4482C20.3931 14.4482 19.9346 14.9065 19.9346 15.4719C19.9346 16.0372 20.3931 16.4955 20.9587 16.4955Z" fill="#C8D04E"/>
<path d="M43.2108 18.4418C43.725 18.4418 44.1419 17.7751 44.1419 16.9528C44.1419 16.1305 43.725 15.4639 43.2108 15.4639C42.6966 15.4639 42.2798 16.1305 42.2798 16.9528C42.2798 17.7751 42.6966 18.4418 43.2108 18.4418Z" fill="#C8D04E"/>
<path d="M29.6174 6.80892C30.2532 6.80892 30.7685 6.2938 30.7685 5.65837C30.7685 5.02293 30.2532 4.50781 29.6174 4.50781C28.9817 4.50781 28.4663 5.02293 28.4663 5.65837C28.4663 6.2938 28.9817 6.80892 29.6174 6.80892Z" fill="#C8D04E"/>
<path d="M34.5179 13.7637C34.5179 13.7637 33.4346 16.141 36.033 15.3796C38.6315 14.6182 34.6957 12.4778 34.5179 13.7637Z" fill="#C8D04E"/>
<path d="M41.23 10.0921C41.23 10.0921 43.693 9.22074 41.3485 7.8756C39.004 6.53047 40.1889 10.8535 41.23 10.0921Z" fill="#C8D04E"/>
<path d="M30.2693 16.1069C30.2693 16.1069 31.632 15.6501 30.3031 14.8718C28.9743 14.0934 29.6937 16.5214 30.2693 16.1069Z" fill="#C8D04E"/>
<path d="M32.7237 5.39655C32.7237 5.39655 33.7648 5.02431 32.7745 4.4575C31.7842 3.89068 32.2836 5.71803 32.7237 5.39655Z" fill="#C8D04E"/>
<path d="M9.34593 21.6821C9.34593 21.6821 5.99418 21.4621 5.56252 21.6821C5.13085 21.902 3.18412 17.579 5.02082 17.689C5.02082 17.689 6.85751 13.6367 8.26254 16.9614C8.26254 16.9614 12.046 16.8261 9.34593 21.6905V21.6821Z" fill="#148D3B"/>
<path d="M68.9922 15.6497C68.9922 15.6497 64.9125 13.2301 62.1617 12.7902C61.8231 12.7394 61.62 12.401 61.7215 12.0796C62.2379 10.3791 63.7445 6.18298 64.8871 10.1845C64.8871 10.1845 68.4505 3.33198 68.3489 10.6752C68.3489 10.6752 71.4806 7.69731 71.269 11.665C71.0574 15.6327 69.0006 15.6497 69.0006 15.6497H68.9922Z" fill="#148D3B"/>
<path d="M58.0735 15.4384L54.3916 15.5145C53.8922 15.523 53.4098 15.3453 53.0289 15.0154C51.7678 13.9156 49.3386 11.5129 53.6468 12.6043C53.6468 12.6043 55.9151 9.18646 56.3468 12.3251C56.3468 12.3251 60.6719 11.7837 58.0735 15.4299V15.4384Z" fill="#148D3B"/>
<path d="M77.2528 25.0151C76.9058 25.5057 76.3218 25.7849 75.7208 25.7765C74.3073 25.7426 71.7427 25.6326 71.2688 25.2519C70.6086 24.7105 68.9919 20.9458 70.8286 21.6988C70.8286 21.6988 72.6653 18.6786 74.6121 21.6988C74.6121 21.6988 76.6688 18.6701 76.6688 22.2317C76.6688 22.2317 79.5804 21.7664 77.2613 25.0235L77.2528 25.0151Z" fill="#148D3B"/>
<path d="M57.7774 39.9981C57.7774 39.9981 53.1053 39.1436 50.3798 39.6851C50.0497 39.7527 49.7366 39.5074 49.7196 39.169C49.6181 37.3924 49.5673 32.9425 52.0303 36.2926C52.0303 36.2926 52.9952 28.6279 55.4413 35.5481C55.4413 35.5481 57.3457 31.665 58.5222 35.4635C59.6987 39.2621 57.7774 39.9896 57.7774 39.9896V39.9981Z" fill="#148D3B"/>
<path d="M67.6888 32.0533C67.6888 32.0533 56.7787 33.1362 59.6903 27.8403C62.6019 22.5443 69.9741 26.6389 69.9741 26.6389C69.9741 26.6389 72.9873 31.2919 67.6888 32.0533Z" fill="#D1D4D5"/>
<path d="M66.4783 32.6541C66.4783 32.6541 69.4153 35.3106 73.4188 32.6541C77.4223 29.9977 65.0563 28.9402 66.4783 32.6541Z" fill="#D1D4D5"/>
<path d="M27.1034 26.6392C27.1034 26.6392 21.7372 26.7915 24.5981 22.1893C27.4589 17.5871 30.8869 22.6207 30.8869 22.6207C30.8869 22.6207 33.1552 27.5698 27.1034 26.6392Z" fill="#D1D4D5"/>
<path d="M30.7685 26.7576C30.7685 26.7576 34.171 27.6628 35.6015 25.4294C36.4817 24.0673 35.2036 22.7307 34.0779 21.8931C33.2992 21.3179 32.2243 21.3771 31.5472 22.0708C30.3368 23.3144 28.8556 25.3871 30.7685 26.7576Z" fill="#D1D4D5"/>
<path d="M35.0935 26.9358C35.0935 26.9358 35.8468 29.3892 33.1976 29.6007C31.7079 29.7192 30.9462 28.8563 30.5653 28.0864C30.2521 27.4434 30.5568 26.6651 31.2085 26.3775C32.2412 25.9291 33.8578 25.5738 35.0851 26.9358H35.0935Z" fill="#D1D4D5"/>
<path d="M24.1413 23.0186C24.1413 23.0186 24.1752 25.5227 26.1473 25.8188C28.1194 26.1149 29.9561 26.5294 29.9561 26.5294C29.9561 26.5294 27.51 27.2401 24.8862 26.208C24.8862 26.208 22.9394 25.4381 24.1413 23.027V23.0186Z" fill="#C1C1C3"/>
<path d="M64.8277 32.0457C64.8277 32.0457 60.9851 32.511 59.3769 30.2522C59.3769 30.2522 58.4882 29.6093 60.1979 27.0713C60.1979 27.0713 60.3926 32.6802 64.8277 32.0457Z" fill="#C1C1C3"/>
<path d="M31.3018 29.042C31.3018 29.042 32.9269 30.3871 34.6704 29.042C34.6704 29.042 31.708 29.4734 31.3018 29.042Z" fill="#C1C1C3"/>
</svg>
