<svg width="72" height="51" viewBox="0 0 72 51" fill="none" xmlns="http://www.w3.org/2000/svg">
<path d="M1.20349 26.9355L4.09721 35.3024C4.32755 35.9792 4.68027 36.5883 5.13376 37.0875L8.84089 41.2498C9.45995 41.9435 10.223 42.4257 11.0508 42.6457L17.3061 44.3292C17.6444 44.4223 17.9683 44.583 18.2563 44.8114L20.8765 46.8587C21.6755 47.4848 22.6041 47.8147 23.5614 47.8147H31.4148C31.8179 47.8147 32.2138 47.857 32.6025 47.9501L41.1181 49.9381C42.1259 50.175 43.1696 50.0143 44.0982 49.4982L52.9233 44.5238C53.4704 44.2192 54.0679 44.0585 54.6725 44.0585C57.9333 44.0585 69.1195 43.3055 69.5946 32.6545L1.19629 26.9355H1.20349Z" fill="#898474"/>
<path d="M11.9723 13.0864C11.0006 13.7801 8.45237 15.7936 7.59578 18.4754C7.43022 18.9914 7.0919 19.406 6.6456 19.5667C3.70149 20.658 -6.38333 24.998 6.07694 29.4479C6.68879 29.6679 6.98392 30.4547 6.73198 31.1484C6.2281 32.5358 6.13452 34.7439 9.78406 35.9367C12.9801 36.9857 15.1612 37.3326 16.4497 37.4341C17.2487 37.5018 17.9613 38.0009 18.4148 38.7792C19.5378 40.7166 22.8562 43.9567 32.3436 42.7808C32.9626 42.7047 33.5673 42.9754 34.028 43.4745C34.8198 44.329 36.4034 45.4711 38.9156 44.9043C38.9156 44.9043 41.0391 46.1902 42.3924 45.0819C42.7883 44.752 43.2922 44.6927 43.7313 44.9381C44.3143 45.2596 45.1133 45.4457 45.7252 44.6166C46.0059 44.2275 46.4234 44.0075 46.8625 44.0583C48.3814 44.2105 51.707 44.1598 52.7508 40.9196C52.9451 40.3274 53.4274 39.9298 53.9673 39.879C55.4357 39.7437 58.2143 39.3207 59.9563 38.0348C60.345 37.7471 60.7913 37.5949 61.2448 37.6964C62.0942 37.874 63.6706 37.781 65.2038 35.4207C65.4774 34.9977 65.8877 34.71 66.334 34.6846C67.4425 34.6085 69.5732 33.9232 70.0699 29.8455C70.1419 29.228 70.4298 28.6527 70.8977 28.3566C72.0206 27.646 73.4603 25.7679 67.5793 21.9863C67.1906 21.7325 66.9098 21.3179 66.7659 20.8272C66.3628 19.4398 65.139 16.5381 61.763 15.396C61.3959 15.2691 61.072 14.9983 60.8416 14.6346C60.0282 13.391 57.3649 10.5315 49.8498 10.0239C49.8498 10.0239 42.5004 7.64665 37.3536 7.75663L12.7498 12.7565C12.4762 12.8157 12.2171 12.9257 11.9795 13.0949L11.9723 13.0864Z" fill="#8FA88F"/>
<path d="M22.2736 2.78238C22.2736 2.78238 26.1319 -3.47798 30.818 2.78238C30.818 2.78238 33.3014 1.59799 34.4963 3.32382C34.4963 3.32382 36.2455 0.836597 37.8075 6.34402C37.8075 6.34402 41.1188 9.69416 39.4632 12.5029C39.4632 12.5029 45.0706 19.6346 36.4327 21.5719C36.4327 21.5719 31.2859 22.7563 30.2781 22.4348C30.2781 22.4348 21.0859 24.3806 18.4225 22.4941C18.4225 22.4941 12.7286 22.6548 12.7286 16.9274C12.7286 16.9274 10.2452 10.4471 15.4856 9.69416C15.4856 9.69416 14.1107 2.89236 19.3439 3.21384C19.3439 3.21384 19.6174 1.80949 22.288 2.78238H22.2736Z" fill="#798E7F"/>
<path d="M18.8751 7.21491C18.8751 7.21491 17.9537 9.59215 20.1636 8.83076C22.3735 8.06936 19.0262 5.929 18.8751 7.21491Z" fill="#CED0B1"/>
<path d="M17.8173 16.4956C18.2983 16.4956 18.6883 16.0372 18.6883 15.4719C18.6883 14.9065 18.2983 14.4482 17.8173 14.4482C17.3362 14.4482 16.9463 14.9065 16.9463 15.4719C16.9463 16.0372 17.3362 16.4956 17.8173 16.4956Z" fill="#CED0B1"/>
<path d="M36.742 18.4506C37.1793 18.4506 37.5338 17.7839 37.5338 16.9616C37.5338 16.1393 37.1793 15.4727 36.742 15.4727C36.3047 15.4727 35.9502 16.1393 35.9502 16.9616C35.9502 17.7839 36.3047 18.4506 36.742 18.4506Z" fill="#CED0B1"/>
<path d="M25.188 6.8177C25.7286 6.8177 26.1669 6.30258 26.1669 5.66715C26.1669 5.03172 25.7286 4.5166 25.188 4.5166C24.6473 4.5166 24.209 5.03172 24.209 5.66715C24.209 6.30258 24.6473 6.8177 25.188 6.8177Z" fill="#CED0B1"/>
<path d="M29.3487 13.7637C29.3487 13.7637 28.4273 16.141 30.6372 15.3796C32.8471 14.6182 29.4999 12.4778 29.3487 13.7637Z" fill="#CED0B1"/>
<path d="M35.0646 10.0921C35.0646 10.0921 37.1593 9.22074 35.1653 7.8756C33.1714 6.53047 34.1792 10.8535 35.0646 10.0921Z" fill="#CED0B1"/>
<path d="M25.7355 16.1157C25.7355 16.1157 26.8944 15.6589 25.7643 14.8805C24.6341 14.1022 25.246 16.5302 25.7355 16.1157Z" fill="#CED0B1"/>
<path d="M27.83 5.39655C27.83 5.39655 28.7154 5.02431 27.8732 4.4575C27.031 3.89068 27.4557 5.71803 27.83 5.39655Z" fill="#CED0B1"/>
<path d="M7.94114 21.6821C7.94114 21.6821 5.09061 21.4621 4.72349 21.6821C4.35638 21.902 2.70077 17.579 4.2628 17.689C4.2628 17.689 5.82483 13.6367 7.01975 16.9614C7.01975 16.9614 10.2374 16.8261 7.94114 21.6905V21.6821Z" fill="#788D7F"/>
<path d="M58.6676 15.6497C58.6676 15.6497 55.198 13.2301 52.8585 12.7902C52.5706 12.7394 52.3978 12.401 52.4842 12.0796C52.9233 10.3791 54.2046 6.18298 55.1764 10.1845C55.1764 10.1845 58.2069 3.33198 58.1205 10.6752C58.1205 10.6752 60.7839 7.69731 60.6039 11.665C60.424 15.6327 58.6748 15.6497 58.6748 15.6497H58.6676Z" fill="#788D7F"/>
<path d="M49.3817 15.4384L46.2504 15.5145C45.8257 15.523 45.4154 15.3453 45.0915 15.0154C44.0189 13.9156 41.953 11.5129 45.617 12.6043C45.617 12.6043 47.5461 9.18646 47.9132 12.3251C47.9132 12.3251 51.5916 11.7837 49.3817 15.4299V15.4384Z" fill="#788D7F"/>
<path d="M65.6935 25.0151C65.3984 25.5057 64.9017 25.7849 64.3906 25.7765C63.1885 25.7426 61.0074 25.6326 60.6043 25.2519C60.0428 24.7105 58.6679 20.9458 60.23 21.6988C60.23 21.6988 61.792 18.6786 63.4476 21.6988C63.4476 21.6988 65.1968 18.6701 65.1968 22.2317C65.1968 22.2317 67.673 21.7664 65.7007 25.0235L65.6935 25.0151Z" fill="#788D7F"/>
<path d="M49.1301 39.9981C49.1301 39.9981 45.1566 39.1436 42.8388 39.6851C42.558 39.7527 42.2917 39.5074 42.2773 39.169C42.1909 37.3924 42.1477 32.9425 44.2425 36.2926C44.2425 36.2926 45.0631 28.6279 47.1434 35.5481C47.1434 35.5481 48.763 31.665 49.7636 35.4635C50.7641 39.2621 49.1301 39.9896 49.1301 39.9896V39.9981Z" fill="#788D7F"/>
<path d="M57.5663 32.0543C57.5663 32.0543 48.2877 33.1372 50.7639 27.8412C53.2401 22.5453 59.5098 26.6399 59.5098 26.6399C59.5098 26.6399 62.0724 31.2929 57.5663 32.0543Z" fill="#D1D4D5"/>
<path d="M56.5368 32.6629C56.5368 32.6629 59.0347 35.3194 62.4395 32.6629C65.8443 30.0065 55.3275 28.949 56.5368 32.6629Z" fill="#D1D4D5"/>
<path d="M23.0431 26.6392C23.0431 26.6392 18.4794 26.7915 20.9124 22.1893C23.3455 17.5871 26.2608 22.6207 26.2608 22.6207C26.2608 22.6207 28.1899 27.5698 23.0431 26.6392Z" fill="#D1D4D5"/>
<path d="M26.1678 26.7576C26.1678 26.7576 29.0615 27.6628 30.278 25.4294C31.0266 24.0673 29.9397 22.7307 28.9823 21.8931C28.3201 21.3179 27.4059 21.3771 26.83 22.0708C25.8007 23.3144 24.541 25.3871 26.1678 26.7576Z" fill="#D1D4D5"/>
<path d="M29.8461 26.9358C29.8461 26.9358 30.4867 29.3892 28.2337 29.6007C26.9668 29.7192 26.3189 28.8563 25.995 28.0864C25.7287 27.4434 25.9878 26.6651 26.5421 26.3775C27.4203 25.9291 28.7951 25.5738 29.8389 26.9358H29.8461Z" fill="#D1D4D5"/>
<path d="M20.5315 23.0186C20.5315 23.0186 20.5603 25.5227 22.2375 25.8188C23.9147 26.1149 25.4767 26.5294 25.4767 26.5294C25.4767 26.5294 23.3964 27.2401 21.1649 26.208C21.1649 26.208 19.5093 25.4381 20.5315 23.027V23.0186Z" fill="#C1C1C3"/>
<path d="M55.126 32.0457C55.126 32.0457 51.858 32.511 50.4903 30.2522C50.4903 30.2522 49.7345 29.6093 51.1885 27.0713C51.1885 27.0713 51.3541 32.6802 55.126 32.0457Z" fill="#C1C1C3"/>
<path d="M26.6133 29.0508C26.6133 29.0508 27.9954 30.3959 29.4782 29.0508C29.4782 29.0508 26.9588 29.4822 26.6133 29.0508Z" fill="#C1C1C3"/>
</svg>
