<svg width="84" height="68" viewBox="0 0 84 68" fill="none" xmlns="http://www.w3.org/2000/svg">
<path d="M0.740727 45.4434L2.67235 51.6394C2.92876 52.4684 3.36466 53.2376 3.94586 53.8956L7.17662 57.5449C8.62962 59.1943 10.6638 60.2199 12.8518 60.425L19.6211 61.0574C20.6382 61.1514 21.604 61.5445 22.3988 62.1855L25.0655 64.3477C26.2621 65.3134 27.7749 65.8091 29.3134 65.7151L39.8176 65.1169C40.5612 65.0741 41.3134 65.1682 42.0228 65.3989L46.792 66.9458C48.4758 67.4927 50.3219 67.2962 51.8518 66.3903L53.1253 65.6382C53.7151 65.2964 54.3732 65.0912 55.0484 65.04L59.0313 64.7579C60.4416 64.6554 61.7407 63.9546 62.5954 62.8265L62.6382 62.7752C63.2194 62.006 64.0655 61.4762 65.0057 61.2967C69.6467 60.3908 83.6894 57.0407 81.0826 49.9814L0.723633 45.4434H0.740727Z" fill="#7F8223"/>
<path d="M31.8777 23.0602C31.8777 23.0602 25.1854 18.4794 13.8349 28.2222C13.8349 28.2222 6.99732 25.8207 7.57851 30.769C7.57851 30.769 3.21099 31.427 6.3392 36.8027C6.3392 36.8027 -8.35311 43.785 6.99732 49.0238C6.99732 49.0238 3.57851 57.2453 20.7495 57.6043C20.7495 57.6043 26.0571 64.5182 39.664 61.1681C39.664 61.1681 43.8093 68.5948 53.7751 62.0825C53.7751 62.0825 62.2879 64.9541 61.852 58.4076C61.852 58.4076 67.3819 60.3733 68.7665 56.5189C68.7665 56.5189 84.6982 53.3226 82.2195 46.1181C82.2195 46.1181 87.6725 39.7938 77.9973 38.2641C77.9973 38.2641 79.7409 34.555 71.6725 33.3927C71.6725 33.3927 68.8349 23.7183 56.399 25.8292C56.399 25.8292 48.0315 21.2484 43.9631 22.7782C43.9631 22.7782 36.1768 21.0348 31.8862 23.0688L31.8777 23.0602Z" fill="#35A738"/>
<path d="M46.4931 26.2656H37.6896C37.6896 26.2656 33.1084 18.8474 39.2195 22.5565C39.2195 22.5565 40.7495 16.5485 43.5871 21.9924C43.5871 21.9924 51.2281 18.9243 46.4931 26.2656Z" fill="#288E37"/>
<path d="M26.1253 30.3334C26.1253 30.3334 23.1424 33.6066 23.5099 28.9489C23.5099 28.9489 20.8176 27.2738 23.8005 26.2568C23.8005 26.2568 24.6723 22.9152 26.8518 25.5988C26.8518 25.5988 30.4928 24.8723 28.3817 28.0003C28.3817 28.0003 31.2877 31.7863 26.1253 30.3249V30.3334Z" fill="#F3F5EF"/>
<path d="M25.8778 28.8802C26.6614 28.8802 27.2966 28.3905 27.2966 27.7863C27.2966 27.1822 26.6614 26.6924 25.8778 26.6924C25.0942 26.6924 24.459 27.1822 24.459 27.7863C24.459 28.3905 25.0942 28.8802 25.8778 28.8802Z" fill="#EEC73F"/>
<path d="M24.7153 36.1533C24.7153 36.1533 28.8008 31.2819 32.8179 30.5555C35.3393 30.1025 36.8435 29.7607 37.6128 29.5641C38.0572 29.453 38.5102 29.453 38.9546 29.547C39.7752 29.7265 41.2538 30.0256 43.0743 30.2564C45.8692 30.6239 49.0999 29.2394 53.3307 32.769C57.5615 36.2986 57.8692 35.9482 58.5444 40.7426L24.7153 36.1533Z" fill="#7E8F28"/>
<path d="M26.0573 44.7335C24.4932 43.708 18.8094 39.2639 27.6556 34.0507C27.6556 34.0507 30.9889 31.1877 36.4334 31.4355C36.6556 31.4441 36.8778 31.4355 37.1 31.3757C37.8436 31.1792 39.9975 30.7775 42.5359 31.9227C43.0573 32.1534 43.6299 32.2304 44.194 32.1278C45.6556 31.8714 48.5188 31.4954 49.8436 32.2304C49.8436 32.2304 50.8522 32.3244 51.3051 33.5721C51.5445 34.2302 51.9889 34.7942 52.6128 35.119C54.2111 35.948 57.1342 37.9307 58.5701 41.8278C60.2111 46.2804 50.5872 50.7245 46.7667 52.297C45.647 52.7585 44.4504 52.9636 43.2368 52.9038C39.9718 52.7243 33.2453 51.5278 26.7752 45.3147C26.553 45.101 26.3051 44.9045 26.0487 44.7335H26.0573Z" fill="#209BBC"/>
<path d="M54.0228 36.6231C54.0228 36.6231 53.9117 37.9307 49.8433 36.8795C45.7749 35.8283 47.1168 32.7004 47.1168 32.7004C47.1168 32.7004 47.6638 31.5467 48.7578 31.8885C49.8518 32.2304 54.0313 36.6317 54.0313 36.6317L54.0228 36.6231Z" fill="#78A8BE"/>
<path d="M64.3648 27.3339C64.3648 27.3339 69.3135 21.6934 70.0058 21.5908L65.1682 31.8122H62.2964V28.6671L64.3733 27.3425L64.3648 27.3339Z" fill="#81AF38"/>
<path d="M62.3736 22.257C62.3736 22.257 64.4505 18.5308 64.8095 18.3086C64.8095 18.3086 64.7753 21.9322 64.3394 23.5645C63.9035 25.1969 62.818 27.795 62.818 27.795H61.1343L62.3736 22.257Z" fill="#81AF38"/>
<path d="M59.1598 28.4193C59.1598 28.4193 56.647 16.258 51.5103 15.1982L57.5444 30.5046L59.1598 30.9063V28.4193Z" fill="#81AF38"/>
<path d="M62.9719 46.5453C62.9719 46.5453 56.2795 50.7329 61.7325 52.9037C61.7325 52.9037 63.5701 53.9805 67.1001 51.6987C68.2454 50.9551 68.5787 49.4595 67.8522 48.3058C67.0573 47.0409 65.5872 45.8274 62.9719 46.5453Z" fill="#CBCCCD"/>
<path d="M10.8347 41.6139C10.8347 41.6139 8.9715 43.6907 12.9031 44.2889C12.9031 44.2889 18.057 45.4598 16.0484 42.0242C16.0484 42.0242 13.4672 39.4432 10.8433 41.6139H10.8347Z" fill="#BEC8C7"/>
<path d="M61.8093 16.0781L60.9375 28.2224L61.3734 32.1878L62.4589 32.0084L62.9717 16.0781H61.8093Z" fill="#0E7B35"/>
<path d="M62.2966 27.4272C62.2966 27.4272 65.5701 19.0433 66.553 18.5732L67.7496 19.2997C67.7496 19.2997 66.3565 22.7011 65.3565 25.6154C64.7838 27.299 64.3394 28.8202 64.365 29.4441C64.4419 31.1534 64.3992 30.9311 64.3992 30.9311H66.1086C66.1086 30.9311 66.5787 32.8199 62.2881 31.9482V27.4186L62.2966 27.4272Z" fill="#0E7B35"/>
<path d="M56.8778 13.0271C56.8778 13.0271 59.8094 27.5729 58.5274 30.2649C58.5274 30.2649 56.7325 29.718 56.5872 30.735C56.4419 31.752 58.1855 32.6237 58.1855 32.6237L61.3479 32.3673C61.3479 32.3673 60.0744 14.6936 58.0402 13.0186H56.8778V13.0271Z" fill="#0E7B35"/>
<path d="M71.7152 10.3095C71.7152 10.3095 73.6553 8.23274 72.5015 10.8137C72.5015 10.8137 73.2793 10.9932 72.6724 12.4631C72.0656 13.9331 68.681 19.3258 67.6468 19.9411C67.0998 20.2659 66.6553 19.9411 66.3733 19.548C66.0912 19.1549 66.0314 18.7019 66.2023 18.2746C66.7493 16.8987 68.4075 13.7365 69.1169 12.6939C69.1169 12.6939 70.5357 10.0958 71.7152 10.318V10.3095Z" fill="#7F521F"/>
<path d="M63.6553 5.01905C63.6553 5.01905 64.698 2.07913 64.6724 5.17288C64.6724 5.17288 65.5356 5.0105 65.5613 6.75394C65.5869 8.49738 64.5527 15.4113 63.7749 16.4796C63.3647 17.0522 62.7749 16.9069 62.3219 16.6505C61.869 16.3941 61.6125 15.9497 61.5954 15.4455C61.5442 13.8217 61.8262 9.91606 62.0826 8.54866C62.0826 8.54866 62.3732 5.31817 63.6553 5.01905Z" fill="#7F521F"/>
<path d="M53.6385 1.60924C53.6385 1.60924 53.3821 -1.80927 54.7325 1.31866C54.7325 1.31866 55.536 0.771701 56.3308 2.51514C57.1257 4.25858 59.1599 11.6767 58.8522 13.0954C58.6898 13.8475 58.0402 13.9671 57.459 13.9073C56.8778 13.8475 56.4248 13.5142 56.1855 13.0185C55.4078 11.4033 53.9633 7.35233 53.6129 5.85673C53.6129 5.85673 52.4676 2.47241 53.63 1.60069L53.6385 1.60924Z" fill="#7F521F"/>
<path d="M12.741 46.6312H9.46746C9.46746 46.6312 9.09994 40.0164 11.0999 43.1358C11.0999 43.1358 16.3734 40.4437 12.7324 46.6312H12.741Z" fill="#288E37"/>
<path d="M59.9121 49.5369C59.9121 49.5369 58.7069 52.3059 61.5531 53.0323C64.3993 53.7587 67.6728 51.2803 67.6728 51.2803C67.6728 51.2803 61.6044 54.2031 59.9121 49.5283V49.5369Z" fill="#B2B5B1"/>
<path d="M65.6981 52.3995C65.6981 52.3995 64.5528 56.0573 68.9203 54.9121C68.9203 54.9121 74.7921 53.9293 71.3391 50.3826C71.3391 50.3826 67.6126 48.246 65.6981 52.3909V52.3995Z" fill="#CBCCCD"/>
<path d="M58.8433 42.3839C58.8433 42.3839 58.7578 46.375 54.057 48.6056C49.3561 50.8362 47.9459 51.7506 47.9459 51.7506C47.9459 51.7506 45.6211 50.8276 46.7835 49.9901C47.9459 49.1526 50.5784 45.8708 53.1425 45.4435C53.1425 45.4435 56.6382 41.3584 58.8433 42.3839Z" fill="#D3DDE2"/>
<path d="M46.9031 51.5112C46.9031 51.5112 48.6809 48.879 49.7492 48.5457C50.8176 48.2124 51.6552 46.7253 53.0911 46.8279C54.527 46.9304 56.1168 45.2725 56.1168 45.2725C56.1168 45.2725 57.9971 45.6314 57.2621 46.2382C56.527 46.845 47.698 52.3146 47.339 52.0411C46.98 51.7676 46.8945 51.5112 46.8945 51.5112H46.9031Z" fill="#61B9D0"/>
<path d="M49.0571 51.2628L55.3563 47.0837L57.4417 45.9385C57.4417 45.9385 55.8264 48.058 53.8178 48.7502C53.8178 48.7502 50.1255 50.9551 49.0571 51.2628Z" fill="#61B9D0"/>
</svg>
