<svg width="72" height="68" viewBox="0 0 72 68" fill="none" xmlns="http://www.w3.org/2000/svg">
<path d="M0.629771 45.4434L2.27254 51.6394C2.4906 52.4684 2.86132 53.2376 3.3556 53.8956L6.10324 57.5449C7.33895 59.1943 9.06894 60.2199 10.9298 60.425L16.6867 61.0574C17.5517 61.1514 18.3731 61.5445 19.0491 62.1855L21.317 64.3477C22.3346 65.3134 23.6212 65.8091 24.9296 65.7151L33.8631 65.1169C34.4955 65.0741 35.1351 65.1682 35.7385 65.3989L39.7945 66.9458C41.2265 67.4927 42.7965 67.2962 44.0977 66.3903L45.1807 65.6382C45.6823 65.2963 46.242 65.0912 46.8162 65.04L50.2035 64.7579C51.4029 64.6554 52.5078 63.9546 53.2346 62.8265L53.271 62.7752C53.7653 62.006 54.4849 61.4762 55.2845 61.2967C59.2315 60.3908 71.1742 57.0406 68.9572 49.9814L0.615234 45.4434H0.629771Z" fill="#81826E"/>
<path d="M27.1106 23.0602C27.1106 23.0602 21.4191 18.4794 11.766 28.2222C11.766 28.2222 5.95093 25.8207 6.44521 30.769C6.44521 30.769 2.73082 31.427 5.39123 36.8026C5.39123 36.8026 -7.10397 43.785 5.95093 49.0238C5.95093 49.0238 3.04338 57.2453 17.6466 57.6043C17.6466 57.6043 22.1605 64.5182 33.7326 61.1681C33.7326 61.1681 37.258 68.5948 45.7335 62.0825C45.7335 62.0825 52.9733 64.9541 52.6026 58.4076C52.6026 58.4076 57.3055 60.3733 58.4831 56.5189C58.4831 56.5189 72.0323 53.3226 69.9243 46.1181C69.9243 46.1181 74.5619 39.7938 66.3335 38.2641C66.3335 38.2641 67.8164 34.555 60.9545 33.3927C60.9545 33.3927 58.5413 23.7183 47.965 25.8292C47.965 25.8292 40.8488 21.2484 37.3888 22.7782C37.3888 22.7782 30.7669 21.0348 27.1179 23.0688L27.1106 23.0602Z" fill="#8EA78F"/>
<path d="M39.5404 26.2656H32.0534C32.0534 26.2656 28.1573 18.8474 33.3546 22.5565C33.3546 22.5565 34.6557 16.5485 37.069 21.9924C37.069 21.9924 43.5674 18.9243 39.5404 26.2656Z" fill="#798E7C"/>
<path d="M22.2262 30.3334C22.2262 30.3334 19.6893 33.6066 20.0019 28.9489C20.0019 28.9489 17.7122 27.2738 20.249 26.2568C20.249 26.2568 20.9905 22.9152 22.844 25.5988C22.844 25.5988 25.9406 24.8723 24.1452 28.0003C24.1452 28.0003 26.6166 31.7863 22.2262 30.3249V30.3334Z" fill="#F3F5EF"/>
<path d="M22.0074 28.889C22.6738 28.889 23.214 28.3993 23.214 27.7951C23.214 27.1909 22.6738 26.7012 22.0074 26.7012C21.341 26.7012 20.8008 27.1909 20.8008 27.7951C20.8008 28.3993 21.341 28.889 22.0074 28.889Z" fill="#EEE6CA"/>
<path d="M21.0264 36.1533C21.0264 36.1533 24.5009 31.2819 27.9173 30.5555C30.0616 30.1025 31.3409 29.7607 31.9951 29.5641C32.3731 29.453 32.7583 29.453 33.1363 29.547C33.8341 29.7265 35.0916 30.0256 36.6399 30.2564C39.0168 30.6238 41.7645 29.2394 45.3626 32.769C48.9607 36.2986 49.2223 35.9482 49.7966 40.7426L21.0264 36.1533Z" fill="#8B8F7A"/>
<path d="M22.1605 44.7335C20.8303 43.708 15.9965 39.2639 23.5198 34.0507C23.5198 34.0507 26.3547 31.1877 30.9849 31.4355C31.1739 31.4441 31.3629 31.4355 31.5519 31.3757C32.1843 31.1792 34.0161 30.7775 36.1749 31.9227C36.6183 32.1534 37.1053 32.2304 37.5851 32.1278C38.8281 31.8714 41.2631 31.4954 42.3898 32.2304C42.3898 32.2304 43.2475 32.3244 43.6328 33.5721C43.8363 34.2302 44.2143 34.7942 44.7449 35.119C46.1042 35.948 48.5902 37.9307 49.8113 41.8278C51.207 46.2804 43.0222 50.7245 39.773 52.297C38.8208 52.7585 37.8032 52.9636 36.771 52.9038C33.9943 52.7243 28.2737 51.5278 22.7711 45.3147C22.5821 45.101 22.3713 44.9045 22.1533 44.7335H22.1605Z" fill="#A0B6BC"/>
<path d="M45.9442 36.6319C45.9442 36.6319 45.8497 37.9395 42.3897 36.8883C38.9297 35.8371 40.0709 32.7092 40.0709 32.7092C40.0709 32.7092 40.5361 31.5555 41.4665 31.8973C42.397 32.2392 45.9514 36.6405 45.9514 36.6405L45.9442 36.6319Z" fill="#A2B5BE"/>
<path d="M54.7395 27.3339C54.7395 27.3339 58.9482 21.6934 59.537 21.5908L55.4228 31.8122H52.9805V28.6671L54.7468 27.3425L54.7395 27.3339Z" fill="#A5AF95"/>
<path d="M53.0462 22.2658C53.0462 22.2658 54.8125 18.5396 55.1178 18.3174C55.1178 18.3174 55.0887 21.941 54.718 23.5733C54.3473 25.2057 53.4242 27.8037 53.4242 27.8037H51.9922L53.0462 22.2658Z" fill="#A5AF95"/>
<path d="M50.3201 28.4271C50.3201 28.4271 48.183 16.2658 43.8145 15.2061L48.9463 30.5124L50.3201 30.9141V28.4271Z" fill="#A5AF95"/>
<path d="M53.555 46.554C53.555 46.554 47.8635 50.7417 52.501 52.9125C52.501 52.9125 54.0638 53.9893 57.0659 51.7074C58.0399 50.9639 58.3234 49.4683 57.7055 48.3146C57.0295 47.0497 55.7793 45.8362 53.555 46.554Z" fill="#CBCCCD"/>
<path d="M9.21506 41.6139C9.21506 41.6139 7.63044 43.6907 10.9741 44.2889C10.9741 44.2889 15.3573 45.4598 13.6491 42.0242C13.6491 42.0242 11.4539 39.4432 9.22233 41.6139H9.21506Z" fill="#BEC8C7"/>
<path d="M52.5666 16.0781L51.8252 28.2309L52.1959 32.1878L53.1263 32.0084L53.5552 16.0781H52.5666Z" fill="#697B6F"/>
<path d="M52.9809 27.4272C52.9809 27.4272 55.7649 19.0433 56.6008 18.5732L57.6184 19.2997C57.6184 19.2997 56.4336 22.7011 55.5832 25.6154C55.0961 27.299 54.7182 28.8202 54.74 29.4441C54.8054 31.1534 54.769 30.9311 54.769 30.9311H56.2228C56.2228 30.9311 56.6226 32.8199 52.9736 31.9482V27.4186L52.9809 27.4272Z" fill="#697B6F"/>
<path d="M48.3716 13.0271C48.3716 13.0271 50.8649 27.5729 49.7745 30.2649C49.7745 30.2649 48.2481 29.718 48.1245 30.735C48.0009 31.752 49.4838 32.6237 49.4838 32.6237L52.1733 32.3673C52.1733 32.3673 51.0902 14.6936 49.3602 13.0186H48.3716V13.0271Z" fill="#697B6F"/>
<path d="M60.9912 10.3095C60.9912 10.3095 62.6413 8.23274 61.66 10.8137C61.66 10.8137 62.3214 10.9932 61.8054 12.4631C61.2893 13.9331 58.4108 19.3258 57.5313 19.9411C57.0661 20.2659 56.6881 19.9411 56.4482 19.548C56.2083 19.1549 56.1574 18.7019 56.3028 18.2746C56.768 16.8987 58.1782 13.7365 58.7815 12.6939C58.7815 12.6939 59.9881 10.0958 60.9912 10.318V10.3095Z" fill="#7F766C"/>
<path d="M54.1359 5.01905C54.1359 5.01905 55.0227 2.07913 55.0009 5.17288C55.0009 5.17288 55.735 5.01051 55.7568 6.75394C55.7787 8.49738 54.8991 15.4113 54.2376 16.4796C53.8887 17.0522 53.3872 16.9069 53.0019 16.6505C52.6167 16.3941 52.3986 15.9497 52.3841 15.4455C52.3405 13.8217 52.5803 9.91606 52.7984 8.54866C52.7984 8.54866 53.0456 5.31817 54.1359 5.01905Z" fill="#7F766C"/>
<path d="M45.6174 1.60924C45.6174 1.60924 45.3994 -1.80927 46.5478 1.31866C46.5478 1.31866 47.2311 0.771701 47.9071 2.51514C48.5831 4.25858 50.3131 11.6767 50.0514 13.0954C49.9133 13.8475 49.3609 13.9671 48.8666 13.9073C48.3723 13.8475 47.9871 13.5142 47.7836 13.0185C47.1221 11.4033 45.8936 7.35233 45.5956 5.85673C45.5956 5.85673 44.6216 2.47241 45.6102 1.60069L45.6174 1.60924Z" fill="#7F766C"/>
<path d="M10.8427 46.6312H8.05871C8.05871 46.6312 7.74615 40.0164 9.44706 43.1358C9.44706 43.1358 13.932 40.4437 10.8354 46.6312H10.8427Z" fill="#798E7C"/>
<path d="M50.9528 49.5369C50.9528 49.5369 49.9279 52.3059 52.3484 53.0323C54.769 53.7587 57.5529 51.2803 57.5529 51.2803C57.5529 51.2803 52.392 54.2031 50.9528 49.5283V49.5369Z" fill="#B2B5B1"/>
<path d="M55.8731 52.3995C55.8731 52.3995 54.8991 56.0573 58.6135 54.9121C58.6135 54.9121 63.6072 53.9293 60.6706 50.3826C60.6706 50.3826 57.5013 48.246 55.8731 52.3909V52.3995Z" fill="#CBCCCD"/>
<path d="M50.0439 42.3839C50.0439 42.3839 49.9712 46.375 45.9734 48.6056C41.9755 50.8362 40.7761 51.7506 40.7761 51.7506C40.7761 51.7506 38.799 50.8277 39.7875 49.9901C40.7761 49.1526 43.0149 45.8708 45.1956 45.4435C45.1956 45.4435 48.1686 41.3584 50.0439 42.3839Z" fill="#D3DDE2"/>
<path d="M39.8891 51.5112C39.8891 51.5112 41.401 48.879 42.3096 48.5457C43.2183 48.2124 43.9306 46.7253 45.1518 46.8279C46.3729 46.9304 47.725 45.2725 47.725 45.2725C47.725 45.2725 49.3241 45.6314 48.699 46.2382C48.0739 46.845 40.5651 52.3146 40.2598 52.0411C39.9545 51.7676 39.8818 51.5112 39.8818 51.5112H39.8891Z" fill="#B1CAD0"/>
<path d="M41.7207 51.2628L47.0779 47.0837L48.8515 45.9385C48.8515 45.9385 47.4777 48.058 45.7695 48.7502C45.7695 48.7502 42.6293 50.9551 41.7207 51.2628Z" fill="#B1CAD0"/>
</svg>
