<svg width="70" height="66" viewBox="0 0 70 66" fill="none" xmlns="http://www.w3.org/2000/svg">
<path d="M0.726019 41.0906L4.20054 51.2094C4.46949 51.9871 4.86928 52.6879 5.3781 53.2605L6.19948 54.192C7.55876 55.7303 9.28876 56.7388 11.1496 57.0807L14.1371 57.6191C14.6459 57.7131 15.1257 57.9267 15.5618 58.2429L19.7487 61.3196C20.7518 62.0546 21.8712 62.5503 23.0342 62.781L29.2564 63.986C29.5907 64.0544 29.9324 64.0801 30.274 64.0801H34.1265C34.977 64.0801 35.8202 64.2082 36.6415 64.4646L40.5159 65.6782C42.3694 66.2593 44.3393 65.9688 46.0111 64.8749L53.0401 60.2855C53.7016 59.8582 54.4212 59.5847 55.1699 59.4992C58.8334 59.0719 70.4782 57.0123 68.879 48.2096L0.71875 41.082L0.726019 41.0906Z" fill="#80806D"/>
<path d="M33.5963 21.6474C33.5963 21.6474 27.6577 18.152 22.9256 22.408C22.9256 22.408 11.9787 22.1858 7.89359 32.3388C7.89359 32.3388 -0.269362 34.7403 0.00685511 39.3211C0.283072 43.9019 6.41074 45.1069 6.41074 45.1069C6.41074 45.1069 2.51462 50.7816 10.4958 52.2003C18.4771 53.619 15.9693 53.072 15.9693 53.072C15.9693 53.072 15.4096 58.3109 23.6743 59.0715C23.6743 59.0715 28.7916 62.3618 32.7241 59.7808C33.1747 59.4817 33.7563 59.5928 34.0397 60.1056C34.9629 61.7807 37.587 64.524 44.0126 60.3791C44.3906 60.1312 44.8268 60.0287 45.2484 60.1141C46.6004 60.3962 49.9368 60.6355 52.2701 56.952C52.5172 56.5674 52.8807 56.3196 53.2805 56.2341C54.0219 56.0718 55.2358 55.7214 56.1081 55.0035C56.4715 54.7044 56.8931 54.5334 57.3292 54.542C58.972 54.5933 63.0353 54.3454 65.1505 51.0038C65.1505 51.0038 70.4423 48.7134 69.7881 43.9104C69.1339 39.1074 65.892 32.8943 62.1776 32.7832C62.1776 32.7832 57.351 26.9973 55.2213 26.2367C55.2213 26.2367 50.9326 22.972 45.3937 23.6985C44.8122 23.7754 44.2234 23.6558 43.6928 23.3737C42.21 22.5875 39.2515 21.1175 38.4301 21.4423L33.6036 21.6645L33.5963 21.6474Z" fill="#8DA68D"/>
<path d="M24.4592 24.9211L17.5974 26.8782C17.0813 27.0235 16.5362 26.8867 16.1146 26.5022C14.8716 25.357 12.6255 22.9811 15.4095 22.9555C15.4095 22.9555 15.1333 19.9044 17.3575 20.9898C17.3575 20.9898 17.5465 17.1696 20.236 19.7933C20.236 19.7933 25.3824 16.862 25.6441 23.058C25.6804 23.9297 25.1861 24.716 24.4592 24.9211Z" fill="#7A8F7F"/>
<path d="M55.207 50.6625H52.4012C51.6162 50.6625 50.991 49.8763 51.0565 48.9618C51.1437 47.8423 51.4417 46.7654 52.3431 47.8252C52.3431 47.8252 53.9204 42.9196 54.8508 48.261C54.8508 48.261 57.3077 46.1074 56.7044 49.2524C56.5445 50.0729 55.9266 50.6625 55.207 50.6625Z" fill="#7A8F7F"/>
<path d="M52.7205 27.8698L50.4671 26.8443C49.7184 26.5024 49.3986 25.4598 49.7984 24.6394C50.6343 22.9216 51.9718 20.8021 52.4443 23.7164C52.4443 23.7164 56.5803 23.272 54.7485 27.0238C54.3415 27.8528 53.4837 28.2032 52.7278 27.8613L52.7205 27.8698Z" fill="#7A8F7F"/>
<path d="M21.2533 0.262454L18.7012 0.477539L20.1075 23.5446L22.6596 23.3295L21.2533 0.262454Z" fill="#8F857A"/>
<path d="M19.9388 1.10798C20.8317 1.03273 21.5423 0.754179 21.5259 0.485829C21.5096 0.217479 20.7724 0.0609446 19.8795 0.1362C18.9866 0.211455 18.276 0.490001 18.2923 0.758351C18.3087 1.0267 19.0458 1.18324 19.9388 1.10798Z" fill="#BAAE9E"/>
<path d="M14.261 5.28187L24.9753 0.555781C25.4041 0.367763 25.8766 0.37631 26.3055 0.58142L30.3324 2.52997C30.8485 2.77781 31.0739 3.47861 30.8413 4.0683L29.4529 7.54663C29.1985 8.1876 28.7333 8.68328 28.1663 8.93113L17.1685 13.6999C16.507 13.9905 15.7656 13.5888 15.5185 12.8111L13.6431 6.87147C13.4396 6.2305 13.7158 5.52116 14.261 5.28187Z" fill="#B7AB9C"/>
<path d="M20.6867 47.7222C20.6867 47.7222 18.6296 49.4913 20.6867 50.1921C20.6867 50.1921 20.7013 54.055 23.9504 51.5424C23.9504 51.5424 28.6825 53.1406 26.4582 48.9615C26.4582 48.9615 27.2941 45.466 24.0449 45.7822C24.0449 45.7822 21.1374 43.3636 20.6867 47.7308V47.7222Z" fill="#FBFAF9"/>
<path d="M23.3036 50.184C23.8816 50.184 24.3503 49.633 24.3503 48.9533C24.3503 48.2736 23.8816 47.7227 23.3036 47.7227C22.7255 47.7227 22.2568 48.2736 22.2568 48.9533C22.2568 49.633 22.7255 50.184 23.3036 50.184Z" fill="#ECE3C9"/>
<path d="M33.5967 21.6482C33.5967 21.6482 22.8896 31.9038 25.6445 36.0487C28.3994 40.1936 33.5967 43.2532 33.5967 43.2532C33.5967 43.2532 40.0951 50.1244 32.2956 54.4916C32.2956 54.4916 27.469 59.3544 28.0723 60.6876L33.5531 59.6791C33.5531 59.6791 36.1626 64.3112 41.8396 61.585C41.8396 61.585 41.4834 58.4228 45.3795 53.5087C48.3307 49.7911 45.2705 44.5181 43.6132 42.1678C43.0753 41.4158 42.4211 40.8004 41.6869 40.3389C40.0733 39.3305 34.2291 35.7069 33.6912 35.5103C33.4295 35.4163 31.5541 31.2542 35.5084 25.4342C35.6974 25.1522 36.01 25.0155 36.2207 24.7505L38.8812 21.4004L33.5967 21.6568V21.6482Z" fill="#EAE4C7"/>
<path d="M57.8165 34.3044C57.8165 34.3044 56.1519 35.236 54.9453 36.5179C53.3243 38.2528 52.5393 40.6372 57.8165 42.261C67.0043 45.0984 63.3844 34.407 57.8165 34.2959V34.3044Z" fill="#C7CACA"/>
<path d="M12.5382 39.3561C11.6732 38.8433 10.6192 39.1082 10.0159 39.997C8.87467 41.6892 7.72619 44.1932 11.1426 43.9027C16.2453 43.4668 13.5776 39.9714 13.5776 39.9714L12.5382 39.3561Z" fill="#C7CACA"/>
<path d="M65.2818 36.0137C65.2818 36.0137 55.2362 37.8511 63.3555 43.6455C71.4748 49.4399 70.5953 37.9793 65.2818 36.0137Z" fill="#C7CACA"/>
<path d="M54.7055 36.792C54.7055 36.792 52.6193 39.1337 54.5746 40.6464C56.53 42.1591 58.5798 42.4838 58.5798 42.4838C58.5798 42.4838 57.4822 42.424 56.7989 40.1934C56.7989 40.1934 54.422 39.9456 54.7055 36.8005V36.792Z" fill="#ACB2B3"/>
<path d="M45.0234 35.0053H42.2176C41.4326 35.0053 40.8075 34.2191 40.8729 33.3046C40.9601 32.185 41.2581 31.1082 42.1595 32.168C42.1595 32.168 43.7368 27.2624 44.6672 32.6038C44.6672 32.6038 47.1241 30.4502 46.5208 33.5952C46.3609 34.4156 45.743 35.0053 45.0234 35.0053Z" fill="#7A8F7F"/>
<path d="M16.7322 35.3734L15.4747 36.5528C15.0604 36.9459 14.3698 36.8006 14.0282 36.2451C13.3159 35.0828 12.5235 33.442 14.3044 34.1342C14.3044 34.1342 15.3003 31.1772 16.8631 33.724C17.2047 34.2795 17.1466 34.9888 16.725 35.382L16.7322 35.3734Z" fill="#7A8F7F"/>
</svg>
