<svg width="83" height="66" viewBox="0 0 83 66" fill="none" xmlns="http://www.w3.org/2000/svg">
<path d="M0.85425 41.0867L4.93972 51.2055C5.25596 51.9832 5.72605 52.684 6.32434 53.2566L7.29015 54.1881C8.88844 55.7264 10.9226 56.7349 13.1107 57.0767L16.6235 57.6152C17.2218 57.7092 17.7859 57.9228 18.2987 58.239L23.2218 61.3157C24.4013 62.0507 25.7175 62.5464 27.085 62.7771L34.4013 63.9821C34.7944 64.0505 35.1961 64.0761 35.5978 64.0761H40.1278C41.1278 64.0761 42.1192 64.2043 43.085 64.4607L47.6406 65.6743C49.8201 66.2554 52.1363 65.9649 54.1021 64.8709L62.3671 60.2816C63.1449 59.8543 63.991 59.5808 64.8713 59.4953C69.179 59.068 82.8713 57.0084 80.991 48.2057L0.845703 41.0781L0.85425 41.0867Z" fill="#808021"/>
<path d="M39.5038 21.6357C39.5038 21.6357 32.5209 18.1402 26.9568 22.3963C26.9568 22.3963 14.085 22.1741 9.28156 32.327C9.28156 32.327 -0.316726 34.7285 0.00806049 39.3093C0.332847 43.8901 7.53797 45.0952 7.53797 45.0952C7.53797 45.0952 2.95678 50.7699 12.3414 52.1886C21.726 53.6073 18.7773 53.0603 18.7773 53.0603C18.7773 53.0603 18.1192 58.2992 27.8371 59.0598C27.8371 59.0598 33.8542 62.3501 38.4781 59.7691C39.0081 59.47 39.6918 59.5811 40.0252 60.0939C41.1106 61.7689 44.1961 64.5123 51.7516 60.3674C52.1961 60.1195 52.7089 60.017 53.2046 60.1024C54.7944 60.3844 58.7175 60.6237 61.461 56.9403C61.7516 56.5557 62.179 56.3079 62.6491 56.2224C63.5209 56.06 64.9482 55.7096 65.9739 54.9918C66.4012 54.6926 66.8969 54.5217 67.4098 54.5303C69.3414 54.5815 74.1192 54.3337 76.6063 50.9921C76.6063 50.9921 82.8286 48.7017 82.0593 43.8987C81.2901 39.0957 77.4781 32.8825 73.1106 32.7714C73.1106 32.7714 67.4354 26.9856 64.9311 26.225C64.9311 26.225 59.8884 22.9603 53.3756 23.6868C52.6918 23.7637 51.9995 23.644 51.3756 23.362C49.632 22.5757 46.1534 21.1058 45.1875 21.4305L39.5123 21.6528L39.5038 21.6357Z" fill="#36A637"/>
<path d="M28.7688 24.9172L20.7005 26.8743C20.0936 27.0196 19.4526 26.8828 18.9569 26.4983C17.4953 25.3531 14.8543 22.9772 18.1278 22.9516C18.1278 22.9516 17.803 19.9005 20.4184 20.9859C20.4184 20.9859 20.6406 17.1657 23.803 19.7894C23.803 19.7894 29.8543 16.8581 30.162 23.0541C30.2047 23.9258 29.6235 24.7121 28.7688 24.9172Z" fill="#178F38"/>
<path d="M64.9142 50.6586H61.6151C60.692 50.6586 59.9569 49.8724 60.0339 48.9579C60.1364 47.8384 60.4868 46.7615 61.5467 47.8213C61.5467 47.8213 63.4014 42.9157 64.4954 48.2571C64.4954 48.2571 67.3843 46.1035 66.6749 49.2485C66.4868 50.0689 65.7604 50.6586 64.9142 50.6586Z" fill="#178F38"/>
<path d="M61.9909 27.8659L59.3413 26.8404C58.4609 26.4985 58.0849 25.4559 58.555 24.6355C59.5379 22.9177 61.1105 20.7982 61.6661 23.7125C61.6661 23.7125 66.5293 23.268 64.3755 27.0199C63.8968 27.8488 62.8883 28.1992 61.9994 27.8574L61.9909 27.8659Z" fill="#178F38"/>
<path d="M24.9989 0.253665L21.998 0.46875L23.6517 23.5358L26.6525 23.3207L24.9989 0.253665Z" fill="#8F622C"/>
<path d="M23.4537 1.10798C24.5036 1.03273 25.3392 0.754179 25.32 0.485829C25.3007 0.217479 24.434 0.0609449 23.384 0.1362C22.3341 0.211455 21.4985 0.490001 21.5177 0.758351C21.537 1.0267 22.4037 1.18324 23.4537 1.10798Z" fill="#BA9058"/>
<path d="M16.7686 5.27796L29.3669 0.551875C29.8711 0.363857 30.4267 0.372402 30.931 0.577513L35.666 2.52606C36.2728 2.77391 36.5378 3.4747 36.2643 4.06439L34.6318 7.54273C34.3327 8.1837 33.7857 8.67938 33.119 8.92722L20.1874 13.696C19.4096 13.9866 18.5378 13.5849 18.2472 12.8072L16.0421 6.86757C15.8028 6.2266 16.1275 5.51726 16.7686 5.27796Z" fill="#B77F37"/>
<path d="M24.3245 47.7183C24.3245 47.7183 21.9057 49.4874 24.3245 50.1882C24.3245 50.1882 24.3416 54.0511 28.1621 51.5385C28.1621 51.5385 33.7262 53.1367 31.1109 48.9575C31.1109 48.9575 32.0938 45.4621 28.2733 45.7783C28.2733 45.7783 24.8544 43.3597 24.3245 47.7269V47.7183Z" fill="#FBFAF9"/>
<path d="M27.41 50.1801C28.0897 50.1801 28.6407 49.6291 28.6407 48.9494C28.6407 48.2697 28.0897 47.7188 27.41 47.7188C26.7302 47.7188 26.1792 48.2697 26.1792 48.9494C26.1792 49.6291 26.7302 50.1801 27.41 50.1801Z" fill="#ECC342"/>
<path d="M39.5038 21.6355C39.5038 21.6355 26.9141 31.8911 30.1534 36.036C33.3927 40.1809 39.5038 43.2405 39.5038 43.2405C39.5038 43.2405 47.1449 50.1117 37.9739 54.4789C37.9739 54.4789 32.2987 59.3417 33.0081 60.6749L39.4526 59.6664C39.4526 59.6664 42.5209 64.2985 49.1961 61.5723C49.1961 61.5723 48.7773 58.4101 53.3585 53.496C56.8286 49.7784 53.2303 44.5054 51.2816 42.1551C50.6491 41.4031 49.8799 40.7877 49.0167 40.3262C47.1192 39.3178 40.2474 35.6942 39.615 35.4976C39.3073 35.4036 37.1021 31.2415 41.7517 25.4215C41.9739 25.1395 42.3414 25.0028 42.5893 24.7378L45.7175 21.3877L39.5038 21.6441V21.6355Z" fill="#EADFAC"/>
<path d="M67.9823 34.2927C67.9823 34.2927 66.0251 35.2243 64.6063 36.5062C62.7003 38.2411 61.7772 40.6255 67.9823 42.2493C78.7858 45.0867 74.5293 34.3953 67.9823 34.2842V34.2927Z" fill="#C7CACA"/>
<path d="M14.7515 39.3521C13.7344 38.8394 12.4951 39.1043 11.7857 39.9931C10.4438 41.6853 9.0934 44.1893 13.1105 43.8988C19.1105 43.4629 15.9737 39.9675 15.9737 39.9675L14.7515 39.3521Z" fill="#C7CACA"/>
<path d="M76.7685 36.0098C76.7685 36.0098 64.9565 37.8472 74.5035 43.6416C84.0506 49.436 83.0164 37.9754 76.7685 36.0098Z" fill="#C7CACA"/>
<path d="M64.3331 36.7793C64.3331 36.7793 61.8801 39.121 64.1792 40.6337C66.4784 42.1464 68.8886 42.4711 68.8886 42.4711C68.8886 42.4711 67.598 42.4113 66.7946 40.1807C66.7946 40.1807 63.9997 39.9329 64.3331 36.7878V36.7793Z" fill="#ACB2B3"/>
<path d="M52.9396 34.9926H49.6404C48.7174 34.9926 47.9823 34.2064 48.0592 33.2919C48.1618 32.1723 48.5122 31.0955 49.5721 32.1553C49.5721 32.1553 51.4268 27.2497 52.5208 32.5911C52.5208 32.5911 55.4097 30.4375 54.7003 33.5825C54.5122 34.4029 53.7857 34.9926 52.9396 34.9926Z" fill="#178F38"/>
<path d="M19.6747 35.3695L18.1961 36.5489C17.7089 36.942 16.8969 36.7967 16.4952 36.2412C15.6576 35.0789 14.726 33.4381 16.82 34.1303C16.82 34.1303 17.9909 31.1733 19.8286 33.7201C20.2303 34.2756 20.1619 34.9849 19.6662 35.3781L19.6747 35.3695Z" fill="#178F38"/>
</svg>
