<svg width="71" height="81" viewBox="0 0 71 81" fill="none" xmlns="http://www.w3.org/2000/svg">
<path d="M0.99707 57.2676L2.26581 64.0418C2.40123 64.7536 2.7006 65.4067 3.13539 65.9343L6.99862 70.5649C7.76842 71.486 8.74492 72.114 9.82121 72.3736L16.3288 73.9646C16.9133 74.1069 17.4764 74.3833 17.9753 74.7684L20.0709 76.3846C21.1044 77.18 22.309 77.6071 23.5421 77.6071H32.2878C32.7939 77.6071 33.3 77.6825 33.7918 77.8332L41.226 80.1359C42.4876 80.5295 43.8276 80.3453 44.9752 79.6251L46.8284 78.4696L51.0338 77.0628C52.5235 76.5604 53.7138 75.2374 54.2127 73.5124C54.448 72.7002 55.0324 72.0889 55.7523 71.8963L63.0297 70.0122C64.2914 69.6857 65.3605 68.6892 65.9094 67.3076L67.9764 62.1578L1.01845 57.276L0.99707 57.2676Z" fill="#82816E"/>
<path d="M48.3326 37.9161C48.3326 37.9161 41.3545 34.3489 36.8641 36.1325C33.2075 37.5812 29.2659 36.3419 27.933 35.8311C27.541 35.6804 27.1418 35.5966 26.7355 35.5715C24.5473 35.4375 17.833 35.5715 12.4801 41.2656C12.4801 41.2656 7.50491 42.262 7.14139 48.0398C7.14139 48.0398 0.648028 48.5422 0.0421702 53.5999C-0.563687 58.6576 5.55904 60.1564 5.55904 60.1564C5.55904 60.1564 3.98381 63.3635 7.74013 65.5742C11.4964 67.7848 16.7211 68.0695 16.7211 68.0695C16.7211 68.0695 18.9663 72.1307 23.6991 71.9884C23.6991 71.9884 26.7926 74.8354 33.2859 72.4154L32.9652 72.5745C32.9652 72.5745 38.7458 79.399 44.8115 73.236C44.8115 73.236 50.1501 75.6225 52.5736 69.426C52.5736 69.426 55.1182 70.1378 57.1852 67.7178C57.1852 67.7178 61.5545 68.1449 64.0421 65.7249C66.5297 63.3049 68.0479 64.6531 69.0743 57.7448C69.0743 57.7448 71.8612 54.6131 70.1648 53.0389C69.1527 52.101 67.5561 51.2218 66.437 50.6608C65.7385 50.3091 65.2396 49.5638 65.1469 48.6762C64.9901 47.2443 64.2488 45.0086 61.3122 43.5599C61.3122 43.5599 61.6757 40.2858 57.3064 39.214C57.3064 39.214 54.6976 38.787 53.1224 38.9963C51.5472 39.2056 48.3326 37.9245 48.3326 37.9245V37.9161Z" fill="#91A990"/>
<path d="M22.8868 39.1132C21.8604 39.2974 19.7078 39.7077 18.603 40.1767C18.268 40.319 17.8974 40.2018 17.6693 39.8752C16.9137 38.7783 15.4882 36.4169 16.4504 35.5377C17.7263 34.3654 18.4533 36.1322 18.4533 36.1322C18.4533 36.1322 18.3108 32.6572 19.7933 32.6069C21.2759 32.5567 21.6822 36.5341 21.6822 36.5341C21.6822 36.5341 22.5019 33.6787 23.457 34.0472C24.184 34.3319 23.8063 37.0366 23.5853 38.3345C23.514 38.7448 23.236 39.0546 22.8868 39.1132Z" fill="#778C7D"/>
<path d="M35.624 43.5764C35.4601 43.8025 35.2248 43.9281 34.9754 43.9114C34.2127 43.8779 32.5805 43.8109 32.5163 43.9281C32.4236 44.0872 29.9717 42.0022 30.2426 41.1983C30.5134 40.3944 32.7943 41.1983 32.7943 41.1983C32.7943 41.1983 33.3859 39.0044 34.0203 39.1635C34.6546 39.3226 34.9754 41.5416 34.9754 41.5416C34.9754 41.5416 36.2512 40.9806 36.5221 41.5416C36.7217 41.9436 36.0303 43.007 35.6311 43.5597L35.624 43.5764Z" fill="#778C7D"/>
<path d="M30.7488 66.1428L26.3367 65.9335C25.9875 65.9167 25.6881 65.6655 25.5598 65.2803C25.1179 63.9489 24.2483 60.9177 25.4173 60.6665C26.9212 60.3483 27.2348 62.5338 27.2348 62.5338C27.2348 62.5338 27.8692 58.4726 28.8742 59.5444C29.8792 60.6162 29.9648 63.2288 29.9648 63.2288C29.9648 63.2288 31.0553 61.7299 31.8322 62.4249C32.3811 62.919 31.9035 64.5769 31.5756 65.5148C31.4402 65.9084 31.1052 66.1596 30.7488 66.1428Z" fill="#778C7D"/>
<path d="M58.4537 62.7435L52.9654 62.5593C52.5876 62.5425 52.2455 62.2746 52.0958 61.8643C51.6539 60.6166 50.877 58.0878 51.939 58.2134C53.3503 58.3725 53.7566 59.6536 53.7566 59.6536C53.7566 59.6536 53.9918 55.8604 55.1037 56.2874C56.2156 56.7145 56.2584 58.5316 56.2584 58.5316C56.2584 58.5316 57.8978 56.9825 58.354 57.8868C58.8101 58.7912 58.1686 60.1309 58.1686 60.1309C58.1686 60.1309 59.8508 59.7039 59.8508 60.6082C59.8508 61.2195 59.3732 61.9899 59.0596 62.4169C58.9028 62.6263 58.6818 62.7435 58.4395 62.7351L58.4537 62.7435Z" fill="#778C7D"/>
<path d="M58.7395 45.7196L54.4059 44.7399C54.0637 44.6646 53.7929 44.3547 53.7216 43.9612C53.4507 42.5628 52.9732 39.4143 54.1635 39.3724C55.6889 39.3138 55.7245 41.5412 55.7245 41.5412C55.7245 41.5412 56.8721 37.6391 57.7203 38.87C58.5685 40.1009 58.3332 42.7051 58.3332 42.7051C58.3332 42.7051 59.602 41.4156 60.2791 42.2362C60.7567 42.814 60.0795 44.3798 59.6376 45.2423C59.4523 45.6108 59.0959 45.795 58.7395 45.7196Z" fill="#778C7D"/>
<path d="M49.9082 70.5559C49.7442 70.782 49.509 70.9076 49.2596 70.8909C48.4969 70.8574 46.8646 70.7904 46.8005 70.9076C46.7078 71.0667 44.2559 68.9817 44.5267 68.1778C44.7976 67.3739 47.0785 68.1778 47.0785 68.1778C47.0785 68.1778 47.6701 65.9839 48.3044 66.143C48.9388 66.3021 49.2596 68.5211 49.2596 68.5211C49.2596 68.5211 50.5354 67.9601 50.8063 68.5211C51.0058 68.9231 50.3145 69.9865 49.9153 70.5392L49.9082 70.5559Z" fill="#778C7D"/>
<path d="M12.4802 60.7171C12.1095 60.9097 11.6961 60.9767 11.2899 60.9348C9.51505 60.7506 4.34744 59.8798 7.12013 56.2456C10.4417 51.8997 12.2592 54.1941 12.2592 54.1941C12.2592 54.1941 16.3078 58.7577 12.4731 60.7171H12.4802Z" fill="#C1C3C3"/>
<path d="M14.59 58.1543C14.59 58.1543 19.6863 59.1675 16.8637 62.4332C14.8608 64.7527 13.3355 63.3459 12.6227 62.3327C12.3234 61.9057 12.2877 61.3111 12.5229 60.8339C12.9791 59.9211 13.813 58.4474 14.59 58.1543Z" fill="#C1C3C3"/>
<path d="M21.732 52.1172C21.732 52.1172 13.2714 52.1675 18.047 46.2892C22.2024 41.1813 25.6665 46.4483 26.5004 47.9137C26.6501 48.1733 26.7214 48.4747 26.7071 48.7845C26.643 49.8564 26.0229 52.1926 21.732 52.1172Z" fill="#C1C3C3"/>
<path d="M43.685 4.33753C44.7045 4.33753 45.531 3.36654 45.531 2.16877C45.531 0.97099 44.7045 0 43.685 0C42.6654 0 41.8389 0.97099 41.8389 2.16877C41.8389 3.36654 42.6654 4.33753 43.685 4.33753Z" fill="#7C7A79"/>
<path d="M44.3125 4.3291C44.3125 4.3291 51.9035 7.88789 60.2929 4.72266C60.5851 4.6138 60.8845 4.84827 60.8916 5.20833C60.97 7.61993 61.3478 15.4241 62.9373 17.2496C62.9373 17.2496 63.757 18.4638 60.9059 19.3849C58.0548 20.306 53.657 23.1949 44.3125 19.7784V4.3291Z" fill="#9EB5BA"/>
<path d="M56.9076 12.0581C56.8933 11.8236 56.7009 11.6645 56.5013 11.7231C55.7885 11.9325 54.3772 12.4851 55.6674 13.3895C56.9575 14.2938 56.9646 12.8201 56.9076 12.0581Z" fill="#E7ECEC"/>
<path d="M48.7108 11.4802C48.5183 11.4049 48.3188 11.5472 48.2903 11.7817C48.1691 12.6274 48.0408 14.3775 49.2596 13.3475C50.4785 12.3176 49.3309 11.7231 48.7108 11.4802Z" fill="#E7ECEC"/>
<path d="M51.1482 9.33706C50.9771 9.21146 50.7561 9.29519 50.6777 9.51291C50.3926 10.3084 49.9222 11.9664 51.3121 11.2965C52.702 10.6266 51.7041 9.739 51.1482 9.32869V9.33706Z" fill="#E7ECEC"/>
<path d="M54.5477 9.68782C54.4765 9.46173 54.2555 9.378 54.0773 9.49523C53.4358 9.91391 52.2027 10.8936 53.6496 11.3625C55.0966 11.8315 54.7687 10.408 54.5406 9.68782H54.5477Z" fill="#E7ECEC"/>
<path d="M43.8705 54.3953C46.6694 54.3953 48.9384 53.3456 48.9384 52.0507C48.9384 50.7558 46.6694 49.7061 43.8705 49.7061C41.0717 49.7061 38.8027 50.7558 38.8027 52.0507C38.8027 53.3456 41.0717 54.3953 43.8705 54.3953Z" fill="#74816E"/>
<path d="M44.662 3.74316H42.5664V51.523H44.662V3.74316Z" fill="#7D7D7D"/>
<path d="M16.7428 48.801C16.7428 48.801 16.7 49.3286 20.2639 49.8561C23.8277 50.3837 26.6575 48.0977 26.6575 48.0977C26.6575 48.0977 27.3203 53.306 21.2047 52.2677C15.0891 51.2294 16.7428 48.7927 16.7428 48.7927V48.801Z" fill="#A1AFA7"/>
<path d="M23.2428 50.6189C23.6491 50.4598 24.0981 50.5938 24.4046 50.9539C25.0746 51.7326 26.1081 53.3068 24.1765 53.9767C22.2449 54.6466 21.7887 53.1896 21.6319 52.3104C21.5678 51.9336 21.7032 51.5484 21.9812 51.3558C22.3162 51.1213 22.7937 50.8031 23.2428 50.6273V50.6189Z" fill="#C1C3C3"/>
<path d="M6.77836 56.7646C6.77836 56.7646 5.43122 58.8664 7.49114 59.8796C9.55105 60.8928 9.2802 60.5077 9.2802 60.5077C9.2802 60.5077 6.37208 58.0123 6.77836 56.7646Z" fill="#A1AFA7"/>
<path d="M50.0292 14.964C50.0292 14.964 52.7591 10.0989 55.1683 14.964C55.1683 14.964 56.6009 18.5479 53.9851 18.0371C53.9851 18.0371 52.6237 17.2081 51.7327 18.0371C50.8417 18.8661 49.3235 17.0239 50.0292 14.964Z" fill="#E7ECEC"/>
</svg>
