<svg width="84" height="81" viewBox="0 0 84 81" fill="none" xmlns="http://www.w3.org/2000/svg">
<path d="M1.16406 57.2676L2.65589 64.0418C2.81513 64.7536 3.16713 65.4067 3.67838 65.9343L8.2209 70.5649C9.12606 71.486 10.2743 72.114 11.5398 72.3736L19.1917 73.9646C19.8789 74.1069 20.541 74.3833 21.1277 74.7684L23.5917 76.3846C24.807 77.18 26.2234 77.6071 27.6733 77.6071H37.9569C38.5519 77.6071 39.147 77.6825 39.7253 77.8332L48.4667 80.1359C49.9501 80.5295 51.5258 80.3453 52.8751 79.6251L55.0542 78.4696L59.999 77.0628C61.7506 76.5604 63.1503 75.2374 63.737 73.5124C64.0135 72.7002 64.7008 72.0889 65.5473 71.8963L74.1043 70.0122C75.5878 69.6857 76.8449 68.6892 77.4903 67.3075L79.9208 62.1578L1.18921 57.276L1.16406 57.2676Z" fill="#827E20"/>
<path d="M56.8312 37.9161C56.8312 37.9161 48.6261 34.3489 43.3461 36.1325C39.0466 37.5812 34.4119 36.3419 32.8446 35.8311C32.3837 35.6804 31.9143 35.5966 31.4366 35.5715C28.8636 35.4375 20.9687 35.5715 14.6745 41.2656C14.6745 41.2656 8.82454 42.262 8.39711 48.0398C8.39711 48.0398 0.761974 48.5422 0.0495853 53.5999C-0.662804 58.6576 6.53652 60.1564 6.53652 60.1564C6.53652 60.1564 4.6843 63.3635 9.10112 65.5742C13.5179 67.7848 19.6612 68.0695 19.6612 68.0695C19.6612 68.0695 22.3013 72.1307 27.8663 71.9884C27.8663 71.9884 31.5037 74.8354 39.1388 72.4154L38.7616 72.5745C38.7616 72.5745 45.5587 79.399 52.6909 73.236C52.6909 73.236 58.9683 75.6225 61.8179 69.426C61.8179 69.426 64.8099 70.1378 67.2404 67.7178C67.2404 67.7178 72.378 68.1449 75.303 65.7249C78.228 63.3049 80.0132 64.6531 81.22 57.7448C81.22 57.7448 84.497 54.6131 82.5023 53.0389C81.3122 52.101 79.4349 51.2218 78.119 50.6608C77.2977 50.3091 76.711 49.5638 76.6021 48.6762C76.4177 47.2443 75.5461 45.0086 72.0931 43.5599C72.0931 43.5599 72.5205 40.2858 67.3829 39.214C67.3829 39.214 64.3155 38.787 62.4632 38.9963C60.611 39.2056 56.8312 37.9245 56.8312 37.9245V37.9161Z" fill="#3BA937"/>
<path d="M26.9107 39.1132C25.7038 39.2974 23.1727 39.7077 21.8737 40.1767C21.4798 40.319 21.0439 40.2018 20.7757 39.8752C19.8874 38.7783 18.2111 36.4169 19.3426 35.5377C20.8428 34.3654 21.6977 36.1322 21.6977 36.1322C21.6977 36.1322 21.53 32.6572 23.2733 32.6069C25.0166 32.5567 25.4943 36.5341 25.4943 36.5341C25.4943 36.5341 26.4581 33.6787 27.5812 34.0472C28.436 34.3319 27.9918 37.0366 27.732 38.3345C27.6482 38.7448 27.3213 39.0546 26.9107 39.1132Z" fill="#138C38"/>
<path d="M41.8879 43.5764C41.6951 43.8025 41.4185 43.9281 41.1252 43.9114C40.2284 43.8779 38.3092 43.8109 38.2338 43.9281C38.1248 44.0872 35.2417 42.0022 35.5602 41.1983C35.8787 40.3944 38.5606 41.1983 38.5606 41.1983C38.5606 41.1983 39.2562 39.0044 40.0022 39.1635C40.7481 39.3226 41.1252 41.5416 41.1252 41.5416C41.1252 41.5416 42.6254 40.9806 42.9439 41.5416C43.1786 41.9436 42.3656 43.007 41.8963 43.5597L41.8879 43.5764Z" fill="#138C38"/>
<path d="M36.1549 66.1428L30.967 65.9335C30.5564 65.9167 30.2044 65.6655 30.0535 65.2803C29.5339 63.9489 28.5114 60.9177 29.8859 60.6665C31.6543 60.3483 32.0231 62.5338 32.0231 62.5338C32.0231 62.5338 32.769 58.4726 33.9507 59.5444C35.1324 60.6162 35.233 63.2288 35.233 63.2288C35.233 63.2288 36.5153 61.7299 37.4288 62.4249C38.0742 62.919 37.5126 64.5769 37.1271 65.5148C36.9679 65.9083 36.574 66.1596 36.1549 66.1428Z" fill="#138C38"/>
<path d="M68.7239 62.7435L62.2705 62.5593C61.8263 62.5425 61.424 62.2746 61.248 61.8643C60.7284 60.6166 59.8148 58.0878 61.0636 58.2134C62.723 58.3725 63.2008 59.6536 63.2008 59.6536C63.2008 59.6536 63.4773 55.8604 64.7848 56.2874C66.0922 56.7145 66.1425 58.5316 66.1425 58.5316C66.1425 58.5316 68.0702 56.9824 68.6065 57.8868C69.1429 58.7911 68.3886 60.1309 68.3886 60.1309C68.3886 60.1309 70.3666 59.7039 70.3666 60.6082C70.3666 61.2195 69.805 61.9899 69.4363 62.4169C69.2519 62.6263 68.9921 62.7435 68.7071 62.7351L68.7239 62.7435Z" fill="#138C38"/>
<path d="M69.0675 45.7196L63.9719 44.7399C63.5696 44.6646 63.2511 44.3547 63.1673 43.9612C62.8488 42.5628 62.2873 39.4143 63.6869 39.3724C65.4805 39.3138 65.5224 41.5412 65.5224 41.5412C65.5224 41.5412 66.8717 37.6391 67.8691 38.87C68.8664 40.1009 68.5898 42.7051 68.5898 42.7051C68.5898 42.7051 70.0817 41.4156 70.8779 42.2362C71.4394 42.814 70.6432 44.3798 70.1236 45.2423C69.9057 45.6108 69.4866 45.795 69.0675 45.7196Z" fill="#138C38"/>
<path d="M58.6833 70.5481C58.4905 70.7742 58.214 70.8998 57.9206 70.8831C57.0238 70.8496 55.1046 70.7826 55.0292 70.8998C54.9202 71.0589 52.0371 68.9739 52.3556 68.17C52.6741 67.3661 55.356 68.17 55.356 68.17C55.356 68.17 56.0517 65.9761 56.7976 66.1352C57.5435 66.2943 57.9206 68.5133 57.9206 68.5133C57.9206 68.5133 59.4208 67.9523 59.7393 68.5133C59.974 68.9153 59.161 69.9787 58.6917 70.5314L58.6833 70.5481Z" fill="#138C38"/>
<path d="M14.6745 60.7171C14.2387 60.9097 13.7526 60.9767 13.2749 60.9348C11.188 60.7506 5.11172 59.8797 8.37195 56.2456C12.2775 51.8997 14.4147 54.1941 14.4147 54.1941C14.4147 54.1941 19.1751 58.7577 14.6661 60.7171H14.6745Z" fill="#C1C3C3"/>
<path d="M17.1553 58.1543C17.1553 58.1543 23.1477 59.1675 19.8288 62.4332C17.4738 64.7527 15.6802 63.3459 14.8421 62.3327C14.4901 61.9057 14.4482 61.3112 14.7248 60.8339C15.2612 59.9211 16.2417 58.4474 17.1553 58.1543Z" fill="#C1C3C3"/>
<path d="M25.5529 52.1094C25.5529 52.1094 15.6046 52.1597 21.2199 46.2814C26.106 41.1735 30.1792 46.4405 31.1598 47.9059C31.3358 48.1655 31.4196 48.4669 31.4028 48.7767C31.3274 49.8486 30.5983 52.1848 25.5529 52.1094Z" fill="#C1C3C3"/>
<path d="M51.367 4.33754C52.5658 4.33754 53.5377 3.36654 53.5377 2.16877C53.5377 0.97099 52.5658 0 51.367 0C50.1681 0 49.1963 0.97099 49.1963 2.16877C49.1963 3.36654 50.1681 4.33754 51.367 4.33754Z" fill="#7C7A79"/>
<path d="M52.1045 4.3291C52.1045 4.3291 61.0303 7.88789 70.8948 4.72266C71.2384 4.6138 71.5904 4.84827 71.5988 5.20833C71.691 7.61993 72.1352 15.4241 74.0042 17.2496C74.0042 17.2496 74.968 18.4638 71.6156 19.3849C68.2632 20.306 63.092 23.1949 52.1045 19.7784V4.3291Z" fill="#229DBA"/>
<path d="M66.9136 12.0493C66.8968 11.8148 66.6705 11.6557 66.4358 11.7144C65.5977 11.9237 63.9383 12.4764 65.4553 13.3807C66.9722 14.2851 66.9806 12.8113 66.9136 12.0493Z" fill="#E7ECEC"/>
<path d="M57.2754 11.4802C57.0491 11.4049 56.8144 11.5472 56.7809 11.7817C56.6384 12.6274 56.4875 14.3775 57.9207 13.3475C59.3539 12.3176 58.0045 11.7231 57.2754 11.4802Z" fill="#E7ECEC"/>
<path d="M60.1418 9.33706C59.9406 9.21146 59.6808 9.29519 59.5886 9.51291C59.2534 10.3084 58.7002 11.9664 60.3345 11.2965C61.9688 10.6266 60.7955 9.739 60.1418 9.32869V9.33706Z" fill="#E7ECEC"/>
<path d="M64.1393 9.68782C64.0555 9.46173 63.7957 9.378 63.5861 9.49523C62.8318 9.91391 61.3819 10.8936 63.0833 11.3625C64.7846 11.8315 64.3991 10.408 64.1309 9.68782H64.1393Z" fill="#E7ECEC"/>
<path d="M51.5844 54.3953C54.8754 54.3953 57.5433 53.3456 57.5433 52.0507C57.5433 50.7558 54.8754 49.7061 51.5844 49.7061C48.2934 49.7061 45.6255 50.7558 45.6255 52.0507C45.6255 53.3456 48.2934 54.3953 51.5844 54.3953Z" fill="#53813D"/>
<path d="M52.5148 3.74316H50.0508V51.523H52.5148V3.74316Z" fill="#7D7D7D"/>
<path d="M19.678 48.801C19.678 48.801 19.6277 49.3286 23.8182 49.8561C28.0088 50.3837 31.336 48.0977 31.336 48.0977C31.336 48.0977 32.1155 53.306 24.9245 52.2677C17.7336 51.2294 19.678 48.7927 19.678 48.7927V48.801Z" fill="#A1AFA7"/>
<path d="M27.3301 50.6101C27.8078 50.451 28.3358 50.585 28.6962 50.9451C29.484 51.7238 30.6993 53.2981 28.428 53.9679C26.1567 54.6378 25.6203 53.1808 25.436 52.3016C25.3605 51.9248 25.5198 51.5396 25.8466 51.347C26.2405 51.1125 26.8021 50.7943 27.3301 50.6185V50.6101Z" fill="#C1C3C3"/>
<path d="M7.96967 56.7568C7.96967 56.7568 6.38566 58.8586 8.80778 59.8718C11.2299 60.885 10.9114 60.4998 10.9114 60.4998C10.9114 60.4998 7.49195 58.0045 7.96967 56.7568Z" fill="#A1AFA7"/>
<path d="M58.8257 14.964C58.8257 14.964 62.0357 10.0989 64.8685 14.964C64.8685 14.964 66.5531 18.5479 63.4772 18.0371C63.4772 18.0371 61.8764 17.2081 60.8288 18.0371C59.7812 18.8661 57.996 17.0239 58.8257 14.964Z" fill="#E7ECEC"/>
</svg>
