<svg width="56" height="40" viewBox="0 0 56 40" fill="none" xmlns="http://www.w3.org/2000/svg">
<g clip-path="url(#clip0_1765_17059)">
<path d="M2.72865 18.98L0.878525 20.4119C-0.282051 22.3084 -0.291763 23.0054 0.829967 24.902L2.37902 26.1771C3.69622 26.8413 5.0487 27.4151 6.42889 27.8954L10.3137 28.7599L14.1984 29.23C13.2272 29.4731 13.3681 29.8621 14.0139 30.3538C15.2667 30.7567 16.5487 31.037 17.8453 31.1913L21.5115 31.5264L25.4497 31.4345C26.7123 31.321 27.9651 30.986 29.2422 31.1589C30.3931 30.5646 31.6702 30.4835 32.8551 30.008C33.2435 29.7163 32.957 28.6194 33.87 28.9652L37.1186 28.3384L40.9791 27.0579C41.285 26.8633 41.5958 26.6796 41.9017 26.4797C43.0623 25.7179 44.0966 24.8587 44.2617 23.1891C44.1209 21.995 43.4071 21.2115 42.6835 20.4335L40.6877 19.3096C40.6197 19.6554 40.5712 20.0066 40.4789 20.3416C39.5077 23.8753 37.0797 25.2694 34.0836 25.934C31.947 26.4095 29.8735 25.934 27.8097 25.3937C23.2029 25.9761 18.5425 25.7482 13.9993 24.7183C11.6782 24.1779 9.3279 23.7132 7.39523 22.0166C6.74939 21.6006 6.62799 21.0711 6.98247 20.3146C7.42437 19.369 7.78371 18.3748 8.17704 17.4022C7.83227 17.1429 7.50206 17.4022 7.17671 17.4617C5.64564 17.7719 4.15269 18.2815 2.72865 18.98Z" fill="#5F9BA4"/>
<path d="M7.37505 21.998C9.31057 23.7541 11.6429 24.2139 13.9558 24.7678C18.4823 25.8158 23.1246 26.042 27.7126 25.4382C27.6314 25.2562 27.4959 25.1137 27.3308 25.0364C27.1656 24.9592 26.9817 24.9523 26.8125 25.0171C25.7722 25.3661 24.7125 25.1556 23.6673 25.1279C22.9107 25.1207 22.1717 24.8649 21.5382 24.3911C21.9888 24.3108 22.4474 24.3108 22.8979 24.3911C24.0035 24.5988 25.1312 24.5988 26.2367 24.3911C26.9528 24.2225 27.6949 24.2702 28.39 24.5296C30.1761 25.3436 32.1261 25.5662 34.0175 25.1722C35.3178 24.9557 36.5413 24.3349 37.5547 23.3774C36.5869 22.6129 35.7111 22.563 34.7869 23.2389C34.3062 23.6075 33.7442 23.813 33.1659 23.8316C33.0252 23.9814 32.8599 24.0976 32.6797 24.1737C32.4994 24.2498 32.3078 24.2841 32.1159 24.2748C30.6642 24.2748 29.1594 24.2028 27.8238 23.4161C26.9142 22.8622 26.1012 22.0534 25.0367 22.9619C25.0367 22.9619 24.9738 22.9619 24.9448 22.9619C22.1334 22.8788 19.3463 22.6849 16.9656 20.6407C16.8494 20.5355 16.7188 20.3305 16.6123 20.6407C16.4575 21.0784 16.3414 20.8845 16.1575 20.6407C15.8574 20.2703 15.6342 19.8272 15.5042 19.3444C15.4365 19.0841 15.5381 18.6797 15.1897 18.6243C14.8413 18.5689 14.7058 18.9013 14.522 19.1782C13.9558 20.1089 13.7429 20.0923 13.2639 19.0785C13.0767 18.7354 12.9639 18.3461 12.9348 17.9429C12.9348 17.5717 12.6639 17.3114 12.451 17.6825C12.1171 18.2974 11.5655 18.1922 11.1009 18.5523C11.3332 16.7297 11.2993 16.6632 9.84768 15.9375C8.67803 17.7482 7.83726 19.809 7.37505 21.998Z" fill="#AA6925"/>
<path d="M33.4043 23.7304C33.984 23.712 34.5473 23.509 35.0291 23.1449C35.9555 22.4773 36.8237 22.5266 37.8034 23.2817C36.786 24.2216 35.5598 24.8291 34.2579 25.0382C32.3639 25.4344 30.4094 25.222 28.6172 24.4254C27.9205 24.1691 27.1767 24.1219 26.4589 24.2886C25.3508 24.4937 24.2204 24.4937 23.1123 24.2886C22.6607 24.2092 22.201 24.2092 21.7494 24.2886C22.3823 24.7643 23.1231 25.0245 23.8835 25.0382C24.9311 25.0382 25.9933 25.2735 27.0361 24.9288C27.2057 24.8648 27.39 24.8716 27.5555 24.9479C27.7211 25.0242 27.8569 25.165 27.9382 25.3447C29.9995 25.8919 32.0705 26.4008 34.2046 25.8919C37.1777 25.2188 39.6416 23.807 40.5922 20.2283C40.6844 19.889 40.7329 19.5334 40.8008 19.1832C41.2858 14.9697 40.146 11.5223 37.0225 9.04898L34.1124 7.13377C33.978 7.07471 33.8628 6.97075 33.7822 6.8358C33.7016 6.70086 33.6594 6.54135 33.6614 6.37863C33.2782 5.86426 32.9193 5.31706 32.4973 4.84647C32.153 4.47437 32.3033 4.04755 32.3761 3.70829C32.8223 1.56873 31.6437 -0.0892938 29.7037 0.00373058C29.149 0.354071 28.6754 0.847146 28.3214 1.44287C28.0983 1.80402 28.268 2.66313 27.4823 2.44972C27.0264 2.32387 26.5123 2.395 26.1049 2.09951C25.809 1.89158 25.5325 1.65081 25.2464 1.42646C24.2468 0.852057 23.1234 0.60919 22.0065 0.726037C21.5603 1.58514 20.8036 1.66175 20.0664 1.76025C19.8853 1.81607 19.7122 1.90083 19.5523 2.01196C19.596 3.01881 18.849 3.14467 18.2767 3.43469C17.7917 3.67546 17.719 3.14467 17.5153 2.88749L16.9963 2.29651C16.2044 1.53908 15.2065 1.11038 14.1686 1.08172L12.864 1.62892C11.5302 3.39091 11.1713 5.70557 12.379 7.23227C13.3199 8.42517 13.1113 9.26786 12.4566 10.3185C12.3644 10.4608 12.2868 10.614 12.2043 10.7617C12.2043 11.4293 11.4429 11.5935 11.3992 12.2446L11.8503 12.7262C12.5044 11.9293 13.04 11.0183 13.4363 10.0285C13.7467 9.339 14.0037 8.80821 14.7458 9.44296C14.7857 9.48934 14.8348 9.52442 14.889 9.54534C14.9432 9.56627 15.0011 9.57245 15.0578 9.56338C15.1145 9.55431 15.1685 9.53025 15.2155 9.49316C15.2624 9.45607 15.3009 9.407 15.3278 9.34994C15.5024 9.03256 15.2745 8.90123 15.0805 8.76991C14.8865 8.63858 14.6246 8.50178 14.4112 8.34856C12.767 7.1666 12.1413 5.37725 12.7282 3.53318C13.1744 2.13235 14.1832 1.63986 15.4054 2.19254C16.3704 2.7011 17.1719 3.53461 17.6996 4.57834C17.8742 4.86288 17.9566 5.38273 18.2719 5.37178C18.6696 5.37178 18.6162 4.9176 18.5871 4.54004C18.5871 4.35399 18.8199 4.23907 19.0042 4.16247C19.4767 3.92655 19.9628 3.72727 20.4593 3.56602C21.1771 3.39638 21.3663 3.11184 20.6678 2.47161C21.3714 2.32236 22.0974 2.38464 22.7728 2.65219C22.9426 2.72332 23.1657 2.88201 23.3063 2.67955C23.447 2.47708 23.2481 2.23084 23.122 2.03932C22.9959 1.8478 22.8456 1.83686 22.9377 1.59062C23.5682 1.4757 24.1066 1.83686 24.6789 2.04479C25.2512 2.25273 25.6489 3.01334 26.2989 3.1392C28.3359 3.47846 30.3002 4.03661 31.9444 5.55236C32.3664 5.94087 32.7204 6.36222 32.2742 7.00792C32.6534 7.10191 32.9945 7.33469 33.2443 7.67003C33.7629 7.80229 34.2343 8.10732 34.5974 8.54555C34.8594 8.57839 35.0825 8.66046 35.1795 8.98879C35.2183 8.97349 35.2594 8.9672 35.3005 8.97027C35.3415 8.97334 35.3815 8.98572 35.4182 9.00667C35.4549 9.02762 35.4874 9.0567 35.5139 9.09218C35.5404 9.12766 35.5603 9.1688 35.5723 9.21314C35.6493 9.21354 35.725 9.23459 35.7933 9.27455C35.8617 9.31452 35.9206 9.37224 35.9652 9.44296L36.7121 9.90261C38.2593 11.2542 39.4961 12.8192 39.9326 15.0901C40.4386 17.3043 40.2234 19.6499 39.3263 21.7003C39.0159 22.3843 38.6231 22.6305 38.0362 22.2475C37.5512 21.9356 36.78 21.9629 37.0225 20.7919C37.2808 19.68 37.3139 18.5167 37.1195 17.3883C37.0516 17.0545 37.0371 16.677 36.6588 16.6989C36.2804 16.7208 36.3629 17.1749 36.3581 17.4649C36.3581 18.2967 36.3581 19.1066 36.3581 19.9602C36.3937 20.4437 36.2922 20.9275 36.0681 21.3416C35.844 21.7557 35.509 22.0787 35.1116 22.2639C34.1959 22.8601 33.1104 23.0309 32.0851 22.74C32.3082 23.3091 32.8902 23.4678 33.4043 23.7304ZM31.668 2.81635C31.5564 3.12278 31.8862 3.6864 31.3818 3.85603C31.1733 3.9217 30.8968 3.6864 30.8968 3.30883C30.858 2.05027 30.5573 1.86969 29.8346 2.93126C29.6067 3.26505 29.238 3.02429 28.9567 2.84918C28.6754 2.67408 28.7918 2.36217 28.8985 2.09951C29.1992 1.35532 29.5533 0.638485 30.4166 0.753398C31.28 0.86831 31.6631 1.59609 31.668 2.81635Z" fill="#54371C"/>
<path d="M14.7637 16.0868L14.1923 15.4766L12.5458 17.7096L10.3218 21.8358C9.82412 23.0841 9.36949 24.3601 8.81041 25.5736C8.36192 26.5445 8.51551 27.2241 9.33263 27.7581C9.92042 25.0017 10.9944 22.4072 12.4905 20.1298L14.7637 16.0868Z" fill="#774516"/>
<path d="M11.5355 12.5665L9.72322 15.7905C11.1926 16.5088 11.2269 16.5746 10.9918 18.3785C11.4816 18.0221 12.0204 18.1262 12.3584 17.5176C12.5592 17.1503 12.8188 17.408 12.8482 17.7753C12.8783 18.1767 12.9942 18.5641 13.1862 18.9048C13.676 19.9082 13.8866 19.9246 14.4596 19.0035C14.6311 18.7348 14.8025 18.4168 15.1356 18.4552C15.4686 18.4936 15.3854 18.9103 15.454 19.168C15.5828 19.6536 15.8089 20.1 16.1152 20.4729C16.3013 20.7032 16.4189 20.8951 16.5756 20.4729C16.6834 20.1714 16.8156 20.3742 16.9332 20.4729C19.343 22.4961 22.1643 22.6661 25.0101 22.7703C25.0395 22.7703 25.0836 22.7703 25.1032 22.7703C26.1807 21.8711 27.0036 22.6826 27.9244 23.2199C29.2763 23.9985 30.78 24.0533 32.269 24.0698C32.4633 24.079 32.6573 24.045 32.8397 23.9697C33.0222 23.8944 33.1895 23.7793 33.3319 23.6311C32.8127 23.3679 32.2249 23.2089 31.9262 22.5784L31.7449 22.3481C31.3721 22.0515 31.1187 21.6023 31.0396 21.098C30.2156 18.5615 30.1983 15.7845 30.9906 13.2354C31.2229 12.4385 31.6362 11.7227 32.19 11.1585C32.7439 10.5943 33.4193 10.2009 34.1499 10.017C34.7209 9.89757 35.2986 9.82246 35.8789 9.79215L35.8495 9.24385C35.6879 9.24385 35.5311 9.21096 35.4528 9.01357C35.374 9.02631 35.2937 9.01156 35.2227 8.97134C35.1517 8.93111 35.0935 8.86736 35.056 8.78877C34.9273 8.80239 34.7983 8.76556 34.6911 8.68456C34.5839 8.60357 34.5051 8.48342 34.4683 8.34465C33.8854 8.30079 33.3368 8.19113 33.1017 7.46738C32.6609 7.46738 32.2249 7.46738 32.1221 6.80394C32.0258 6.81856 31.9279 6.80083 31.8407 6.75299C31.7535 6.70515 31.6809 6.62937 31.6323 6.53528C30.8878 4.66011 29.3694 4.16116 27.7824 3.66769C27.224 3.49224 26.4893 3.66769 26.0975 2.9275C25.4264 2.7959 25.0885 2.05571 24.4615 1.83091C23.8346 1.6061 23.3398 1.28261 22.7031 1.37582C22.61 1.62255 22.806 1.69383 22.8892 1.82542C22.9725 1.95701 23.2664 2.20375 23.0754 2.46693C22.8843 2.73011 22.708 2.51079 22.5366 2.43951C21.8544 2.17143 21.1213 2.10903 20.4108 2.25857C21.1161 2.8946 20.9006 3.17971 20.2002 3.35517C19.6988 3.51674 19.2079 3.71642 18.7308 3.95281C18.5446 4.02957 18.2948 4.14471 18.3095 4.33113C18.3389 4.70945 18.3928 5.14809 17.9912 5.16454C17.6728 5.16454 17.5895 4.65462 17.4132 4.36951C16.8803 3.3237 16.0709 2.48852 15.0964 1.97894C13.8474 1.43065 12.8433 1.91863 12.3927 3.32227C11.8 5.17002 12.4318 6.96295 14.0923 8.14726C14.3078 8.30079 14.5429 8.4269 14.7682 8.56945C14.9935 8.71201 15.1944 8.83263 15.018 9.15064C14.9908 9.20782 14.952 9.25699 14.9046 9.29415C14.8572 9.33132 14.8026 9.35542 14.7453 9.36451C14.688 9.3736 14.6296 9.3674 14.5749 9.34643C14.5201 9.32547 14.4706 9.29032 14.4303 9.24385C13.6809 8.60783 13.4213 9.13968 13.1078 9.83053C12.7193 10.8317 12.1883 11.7557 11.5355 12.5665ZM14.8907 7.30837C13.3576 6.76008 12.809 5.06036 13.6515 3.40999C14.6311 2.93846 15.1503 3.84315 15.6107 4.4682C16.0711 5.09326 16.8009 5.67445 16.1348 6.70525C15.8262 7.24806 15.8066 8.3282 14.9103 7.30837H14.8907ZM23.5358 10.3075C23.5358 11.4041 23.1684 12.0456 22.4925 12.0676C21.8165 12.0895 21.2435 11.3493 21.2925 10.324C21.3316 9.5838 21.4541 8.8436 22.3113 8.82167C22.4796 8.82652 22.6453 8.86913 22.7987 8.94697C22.9521 9.02481 23.0899 9.13631 23.2041 9.27486C23.3183 9.41341 23.4065 9.57619 23.4634 9.75358C23.5204 9.93096 23.545 10.1193 23.5358 10.3075Z" fill="#BF772B"/>
<path d="M35.7955 9.92285C35.2351 9.95288 34.6772 10.0273 34.1258 10.1456C33.4203 10.3278 32.7681 10.7175 32.2333 11.2765C31.6984 11.8355 31.2993 12.5446 31.0751 13.3342C30.3099 15.8597 30.3266 18.6109 31.1224 21.1239C31.2057 21.623 31.4573 22.0642 31.8224 22.3515L31.9974 22.5797C32.9973 22.8685 34.0558 22.699 34.9488 22.1071C35.3364 21.9232 35.6631 21.6026 35.8816 21.1915C36.1001 20.7804 36.1992 20.3001 36.1644 19.8201C36.1644 18.9945 36.1644 18.1905 36.1644 17.3431C36.1644 17.0552 36.032 16.6098 36.4577 16.5826C36.8833 16.5555 36.8408 16.9357 36.907 17.2671C37.0966 18.3872 37.0642 19.542 36.8124 20.6458C36.5759 21.8083 37.3232 21.7811 37.8009 22.0908C38.3733 22.4656 38.7469 22.2211 39.0591 21.5476C39.9292 19.5101 40.1339 17.1817 39.6361 14.9856C39.2104 12.7313 38.0043 11.1831 36.4955 9.83594C36.2968 10.189 36.0367 9.97174 35.7955 9.92285ZM34.5799 15.8493C33.9035 15.8493 32.9197 14.9421 32.9528 14.3717C32.9528 13.9806 33.1988 13.9372 33.4684 13.9372C34.1116 13.9372 35.2042 14.828 35.1664 15.3495C35.1427 15.7569 34.8873 15.8601 34.5799 15.8493ZM37.2806 15.1485C37.2806 14.6488 38.08 13.5189 38.4158 13.5787C38.7516 13.6384 38.7706 13.9317 38.7706 14.2359C38.7706 14.7792 38.08 15.6483 37.6496 15.6374C37.3563 15.632 37.2712 15.4527 37.2806 15.1485Z" fill="#6C5739"/>
<path d="M32.1816 4.98974C32.1816 3.44327 31.6409 2.52788 30.5965 2.38918C29.5521 2.25048 29.0544 3.15201 28.6735 4.09515C28.5384 4.42802 28.3356 4.78863 28.7472 5.04521C29.1589 5.3018 29.5705 5.57226 29.8593 5.14924C30.7747 3.80388 31.1556 4.03273 31.2047 5.62774C31.2047 6.09237 31.5549 6.39057 31.8191 6.32122C32.458 6.10624 32.0403 5.41276 32.1816 4.98974Z" fill="#AA6925"/>
<path d="M26.1535 3.05469C26.533 3.80744 27.2444 3.62931 27.7851 3.83043C29.3218 4.34759 30.7922 4.87049 31.5131 6.8357C31.5602 6.93431 31.6304 7.01373 31.7149 7.06387C31.7994 7.114 31.8942 7.13259 31.9874 7.11726C32.4237 6.43921 32.0775 5.99675 31.6649 5.58877C30.0475 3.99707 28.1503 3.41095 26.1535 3.05469Z" fill="#DD9A23"/>
<path d="M33.1958 7.79688C33.4266 8.3562 33.965 8.44094 34.5371 8.47484C34.1772 8.13549 33.7099 7.89929 33.1958 7.79688Z" fill="#DD9A23"/>
<path d="M32.1893 7.11719C32.295 7.77274 32.7426 7.78395 33.1953 7.79515C32.9363 7.45179 32.5826 7.21344 32.1893 7.11719Z" fill="#DD9A23"/>
<path d="M35.9043 10.0552C36.1264 10.1059 36.3659 10.3311 36.5488 9.96511L35.8782 9.49219L35.9043 10.0552Z" fill="#DD9A23"/>
<path d="M34.5377 8.47656C34.5587 8.58182 34.6037 8.67296 34.6648 8.7344C34.726 8.79584 34.7996 8.82378 34.873 8.81344C34.8227 8.56806 34.6886 8.50152 34.5377 8.47656Z" fill="#DD9A23"/>
<path d="M35.5436 9.15625C35.6098 9.44681 35.7423 9.47909 35.8789 9.49523C35.8408 9.39092 35.7905 9.30578 35.7322 9.24684C35.6739 9.18789 35.6093 9.15684 35.5436 9.15625Z" fill="#DD9A23"/>
<path d="M34.8723 8.83884C34.9356 8.94601 35.034 9.03295 35.154 9.08781C35.274 9.14267 35.4098 9.16278 35.543 9.14541C35.5224 9.08482 35.4885 9.02859 35.4433 8.98012C35.3981 8.93164 35.3425 8.8919 35.2799 8.86327C35.2172 8.83465 35.1489 8.81773 35.0788 8.81353C35.0088 8.80934 34.9386 8.81794 34.8723 8.83884Z" fill="#DD9A23"/>
<path d="M23.469 10.3641C23.4772 10.1676 23.4554 9.97088 23.4047 9.78565C23.3541 9.60042 23.2756 9.43043 23.1741 9.28575C23.0726 9.14107 22.9501 9.02464 22.8137 8.94335C22.6774 8.86206 22.53 8.81757 22.3803 8.8125C21.6052 8.8125 21.5094 9.61408 21.4615 10.3813C21.4179 11.452 21.897 12.2192 22.5284 12.202C23.1598 12.1849 23.469 11.5322 23.469 10.3641Z" fill="#54371C"/>
<path d="M17.4422 4.50781C16.3854 6.58826 17.0735 8.77272 18.9965 9.43846C19.9181 8.86981 20.0778 8.14165 19.4819 7.1153C18.9619 6.10205 18.2685 5.21568 17.4422 4.50781Z" fill="#774516"/>
<path d="M17.4415 4.5059C18.2678 5.21376 18.9612 6.10013 19.4812 7.11339C20.0956 8.13974 19.9174 8.86789 18.9958 9.43655C20.1201 10.7264 20.1447 9.36027 20.5871 8.67372C21.4226 7.36998 20.4888 6.59328 19.9297 5.84432C19.3706 5.09536 18.7009 3.9095 17.4415 4.5059Z" fill="#54371C"/>
<path d="M34.5846 15.9323C34.9103 15.9323 35.181 15.8341 35.206 15.4007C35.2461 14.8229 34.0884 13.8984 33.4069 13.8984C33.1212 13.8984 32.8806 13.9447 32.8606 14.3607C32.8255 14.9674 33.8679 15.9208 34.5846 15.9323Z" fill="#54371C"/>
<path d="M37.2198 15.1139C37.2198 15.4087 37.3156 15.5857 37.635 15.5964C38.1194 15.5964 38.8965 14.7546 38.8965 14.2131C38.8965 13.9129 38.8539 13.618 38.4973 13.5644C38.1407 13.5108 37.2198 14.626 37.2198 15.1139Z" fill="#54371C"/>
</g>
<defs>
<clipPath id="clip0_1765_17059">
<rect width="56" height="40" fill="white" transform="matrix(-1 0 0 1 56 0)"/>
</clipPath>
</defs>
</svg>