<svg xmlns="http://www.w3.org/2000/svg" fill="none" viewBox="0 0 1260 1112"><g fill="#6cb6ff" clip-path="url(#a)"><path stroke="#6cb6ff" d="M805 25.82c224.33-61.74 380 61.3 468 76.61v706L-6.93 887.14c-5.34-295.23-12.8-885.7 0-885.7 16 0 60-3.27 219.99 0C373.05 4.75 496.97 110.62 805 25.83Z"/><path d="M501 843.1c184-22.93 694.32-329.67 801.52-231.94 110.19 100.47-10.12 487.11-10.12 487.11-345.85 0-568.42-51.3-707.89-91.75C446.98 966.63 202.25 996.55 0 992.56v-113.7c203.6 4 501-35.77 501-35.77"/></g><defs><clipPath id="a"><path fill="#fff" d="M0 0h1260v1112H0z"/></clipPath></defs></svg>