<svg xmlns="http://www.w3.org/2000/svg" fill="none" viewBox="0 0 1994 1112"><g fill="#6cb6ff" clip-path="url(#a)"><path stroke="#6cb6ff" d="M1263.82 25.82c350-61.74 592.89 61.29 730.18 76.6v705.87L-2.97 887C-11.3 591.82-22.94 1.46-2.97 1.46c24.96 0 93.6-3.28 343.23 0 249.62 3.28 442.97 109.13 923.56 24.36Z"/><path d="M781.77 842.96c287.11-22.92 1083.43-329.49 1250.7-231.8 171.94 100.4-15.78 486.84-15.78 486.84-539.68 0-886.98-51.27-1104.6-91.7C697.48 966.43 315.6 996.33 0 992.34V878.71c317.7 3.99 781.77-35.75 781.77-35.75"/></g><defs><clipPath id="a"><path fill="#fff" d="M0 0h1994v1112H0z"/></clipPath></defs></svg>