<svg xmlns="http://www.w3.org/2000/svg" fill="none" viewBox="0 0 400 739"><g fill="#6cb6ff" clip-path="url(#a)"><path stroke="#6cb6ff" d="M250.64 16.47C321.75-22.92 371.1 55.58 399 65.35v450.42L-6.76 566C-8.45 377.64-10.82.93-6.76.93c5.07 0 19.02-2.1 69.74 0s90 69.64 187.66 15.54Z"/><path d="M145.07 483.96c58.79-22.92 221.83-329.49 256.08-231.8 35.2 100.4-3.23 486.84-3.23 486.84-110.5 0-181.61-51.27-226.17-91.7-43.94-39.87-122.13-9.97-186.75-13.96V519.71c65.05 4 160.07-35.75 160.07-35.75"/></g><defs><clipPath id="a"><path fill="#fff" d="M0 0h400v739H0z"/></clipPath></defs></svg>