<svg width="400" height="971" viewBox="0 0 400 971" fill="none" xmlns="http://www.w3.org/2000/svg">
<g clip-path="url(#clip0_89_1398)">
<path d="M250.636 22.0925C321.752 -30.7342 371.104 74.5387 399 87.6357V691.644L-6.75959 759C-8.45026 506.416 -10.8172 1.24733 -6.75959 1.24733C-1.6876 1.24733 12.2604 -1.55916 62.9803 1.24733C113.7 4.05382 152.987 94.6295 250.636 22.0925Z" fill="#6CB6FF" stroke="#6CB6FF"/>
<path d="M160.067 715.959C218.855 693.044 381.9 386.472 416.149 484.154C451.355 584.568 412.918 971 412.918 971C302.418 971 231.308 919.728 186.75 879.298C142.809 839.428 64.6193 869.331 0 865.344V751.713C65.0501 755.701 160.067 715.959 160.067 715.959Z" fill="#6CB6FF"/>
</g>
<defs>
<clipPath id="clip0_89_1398">
<rect width="400" height="971" fill="white"/>
</clipPath>
</defs>
</svg>
