<svg xmlns="http://www.w3.org/2000/svg" fill="none" viewBox="0 0 1608 1112"><g fill="#6cb6ff" clip-path="url(#a)"><path stroke="#6cb6ff" d="M1018.18 25.82C1300.9-35.92 1497.1 87.1 1608 102.42v705.87L-5.1 887C-11.8 591.82-21.21 1.46-5.1 1.46c20.17 0 75.62-3.28 277.26 0s357.82 109.13 746.02 24.36Z"/><path d="M630.61 842.96c231.6-22.92 873.95-329.49 1008.88-231.8 138.7 100.4-12.73 486.84-12.73 486.84-435.33 0-715.48-51.27-891.03-91.7C562.62 966.43 254.58 996.33 0 992.34V878.71c256.28 3.99 630.61-35.75 630.61-35.75"/></g><defs><clipPath id="a"><path fill="#fff" d="M0 0h1608v1112H0z"/></clipPath></defs></svg>