<svg width="23" height="23" viewBox="0 0 23 23" fill="none" xmlns="http://www.w3.org/2000/svg">
<path d="M5.23828 0.5C5.6023 0.5 5.93878 0.60882 6.22363 0.834961L6.22266 0.835938C6.43524 1.00021 6.609 1.21867 6.75098 1.47363L6.88379 1.74316L6.8877 1.75098L8.88574 6.49512C8.97909 6.4821 9.07465 6.4756 9.17188 6.47559H11.96C12.5875 6.47559 13.1534 6.57899 13.6387 6.80859C13.6399 6.80915 13.6423 6.80901 13.6436 6.80957C13.6459 6.81069 13.648 6.81235 13.6504 6.81348H13.6494C14.1363 7.03423 14.5271 7.35939 14.7969 7.79492C15.0658 8.22903 15.1914 8.72691 15.1914 9.26855C15.1913 9.87938 15.0282 10.4298 14.6846 10.8955L14.6855 10.8965C14.611 10.9997 14.529 11.0942 14.4424 11.1826C14.5882 11.2967 14.7227 11.4257 14.8408 11.5752L14.9775 11.7627C15.1188 11.9774 15.2212 12.2122 15.292 12.4629C15.6141 12.2053 15.9733 11.996 16.3691 11.8379C16.9698 11.5926 17.6322 11.4756 18.3486 11.4756C18.7389 11.4756 19.1369 11.526 19.541 11.625H19.542C19.5432 11.6253 19.5447 11.6257 19.5459 11.626C19.5488 11.6267 19.5518 11.6272 19.5547 11.6279H19.5537C19.9759 11.7222 20.3602 11.87 20.7002 12.0771H20.6992C20.9845 12.2468 21.2127 12.4797 21.3447 12.7842C21.462 13.0546 21.5024 13.34 21.4619 13.6309C21.4306 13.9069 21.3409 14.1649 21.1875 14.3945C21.0258 14.6365 20.8036 14.8184 20.5254 14.916L20.5039 14.9238C20.1777 15.0218 19.8598 14.9495 19.583 14.7998V14.8008C19.3847 14.6987 19.1904 14.6249 19.001 14.5762L18.9912 14.5732L18.9805 14.5703C18.8093 14.5182 18.6259 14.4912 18.4287 14.4912C18.0274 14.4912 17.7292 14.5767 17.5068 14.7168L17.4248 14.7715C17.2469 14.9024 17.1011 15.0874 16.9922 15.3447C16.8657 15.6435 16.792 16.0393 16.792 16.5488C16.792 17.0556 16.8651 17.4557 16.9922 17.7646C17.1161 18.0575 17.2894 18.2628 17.5059 18.4043C17.729 18.5372 18.0277 18.6191 18.4287 18.6191C18.5827 18.6191 18.757 18.5994 18.9531 18.5566C19.138 18.5083 19.3228 18.4363 19.5078 18.3379L19.5176 18.332L19.5273 18.3281C19.8233 18.1867 20.1557 18.1146 20.4873 18.21H20.4863C20.7701 18.2892 21.0073 18.4522 21.1807 18.6914H21.1816C21.183 18.6932 21.1842 18.6955 21.1855 18.6973C21.1874 18.6999 21.1896 18.7024 21.1914 18.7051H21.1904C21.3524 18.9238 21.4517 19.1734 21.4932 19.4443C21.5396 19.7385 21.4974 20.0275 21.3789 20.3008L21.3779 20.2998C21.2585 20.5929 21.0513 20.8203 20.7832 20.9844L20.7842 20.9854C20.7812 20.9873 20.7774 20.9883 20.7744 20.9902C20.7707 20.9925 20.7674 20.9958 20.7637 20.998L20.7627 20.9971C20.4427 21.2047 20.0644 21.3602 19.6377 21.4688L19.6367 21.4678C19.2096 21.5783 18.7798 21.6348 18.3486 21.6348C17.3859 21.6347 16.5288 21.4298 15.7979 20.998C15.0718 20.5692 14.5141 19.9624 14.1299 19.1904L14.1279 19.1865C13.7535 18.417 13.5752 17.533 13.5752 16.5488C13.5752 16.3968 13.5801 16.247 13.5889 16.0996C13.1388 16.275 12.6298 16.3574 12.0742 16.3574H9.17188C8.71862 16.3574 8.29668 16.2269 7.98633 15.8984L7.97949 15.8916L7.97266 15.8838C7.68457 15.5529 7.57524 15.1214 7.5752 14.6611V10.3164C7.54902 10.2963 7.52203 10.2764 7.49707 10.2539L7.48828 10.2461V10.2451C7.25068 10.0202 7.07277 9.6981 6.93164 9.33203L6.68555 8.69434H3.7793L3.5332 9.33203L3.53027 9.34082C3.38426 9.69858 3.21474 10.0103 3.00586 10.2285C2.73299 10.5135 2.35679 10.6094 1.98145 10.6094C1.65954 10.6094 1.35196 10.5279 1.09082 10.3359L1.08496 10.3311L1.07812 10.3262C0.817414 10.1208 0.657397 9.84222 0.598633 9.51855L0.597656 9.51465C0.539673 9.18168 0.598017 8.84256 0.728516 8.51367L0.732422 8.50391L3.57715 1.75195L3.70605 1.48047C3.84576 1.22022 4.01996 0.995754 4.23828 0.829102L4.24512 0.824219C4.53799 0.608936 4.8744 0.5 5.23828 0.5ZM12.2979 12.8125C12.2578 12.7762 12.127 12.7041 11.7891 12.7041H10.5859V13.6572H11.7891C12.1219 13.6572 12.2527 13.5856 12.2949 13.5488C12.3446 13.5032 12.4092 13.4084 12.4092 13.1738C12.4091 12.9379 12.3452 12.8549 12.3057 12.8203L12.2979 12.8135L12.6348 12.4434L12.2979 12.8125ZM10.5859 10.0029H11.583C11.9161 10.0029 12.0491 9.93342 12.0908 9.89746L12.0986 9.89062C12.1332 9.86203 12.1914 9.7943 12.1914 9.58301C12.1914 9.37013 12.1326 9.31499 12.1094 9.29688L12.1006 9.28906L12.0908 9.28125C12.049 9.24527 11.9159 9.17578 11.583 9.17578H10.5859V10.0029ZM4.84473 5.91797H5.61719L5.22852 4.9043L4.84473 5.91797Z" stroke="currentColor"/>
</svg>
