<svg width="20" height="21" viewBox="0 0 20 21" fill="none" xmlns="http://www.w3.org/2000/svg">
<path d="M17.2737 20.135C16.3824 20.135 15.6168 19.946 14.9769 19.568C14.337 19.19 13.8456 18.6567 13.5028 17.9679C13.1676 17.2791 13 16.4727 13 15.5488C13 14.86 13.0952 14.2342 13.2857 13.6714C13.4837 13.1086 13.7656 12.6256 14.1313 12.2225C14.5046 11.8193 14.954 11.5127 15.4797 11.3027C16.013 11.0843 16.611 10.9751 17.2737 10.9751C17.6242 10.9751 17.986 11.0213 18.3593 11.1137C18.7402 11.1977 19.0754 11.3279 19.3649 11.5043C19.5782 11.6303 19.7268 11.7899 19.8106 11.9831C19.8944 12.1763 19.921 12.3737 19.8906 12.5752C19.8677 12.7768 19.803 12.9574 19.6963 13.117C19.5896 13.2766 19.4525 13.3858 19.2849 13.4446C19.1173 13.495 18.9345 13.4656 18.7364 13.3564C18.5079 13.2388 18.2793 13.1506 18.0508 13.0918C17.8299 13.0246 17.5975 12.991 17.3537 12.991C16.8814 12.991 16.4853 13.0918 16.1653 13.2934C15.853 13.4866 15.6168 13.7722 15.4568 14.1502C15.2969 14.5282 15.2169 14.9944 15.2169 15.5488C15.2169 16.1031 15.2969 16.5735 15.4568 16.9599C15.6168 17.3379 15.853 17.6277 16.1653 17.8293C16.4853 18.0225 16.8814 18.1191 17.3537 18.1191C17.5518 18.1191 17.7651 18.0939 17.9937 18.0435C18.2222 17.9847 18.4469 17.8965 18.6679 17.7789C18.8964 17.6697 19.0983 17.6403 19.2735 17.6907C19.4563 17.7411 19.6011 17.8419 19.7077 17.9931C19.822 18.1443 19.8944 18.3207 19.9248 18.5223C19.9553 18.7155 19.9287 18.9086 19.8449 19.1018C19.7687 19.295 19.6315 19.4504 19.4335 19.568C19.1668 19.7444 18.8355 19.883 18.4393 19.9838C18.0508 20.0846 17.6623 20.135 17.2737 20.135Z" fill="currentColor"/>
<path d="M8.097 14.8578C7.73895 14.8578 7.4647 14.757 7.27425 14.5554C7.09142 14.3454 7 14.0472 7 13.6609V7.17206C7 6.78567 7.09142 6.49168 7.27425 6.29009C7.4647 6.08009 7.73895 5.9751 8.097 5.9751H10.8852C11.4642 5.9751 11.9556 6.07169 12.3593 6.26489C12.7707 6.44968 13.083 6.71427 13.2963 7.05866C13.5097 7.40305 13.6163 7.80624 13.6163 8.26823C13.6163 8.78901 13.4792 9.2342 13.2049 9.60378C12.9383 9.97337 12.5726 10.2254 12.1079 10.3598V10.1582C12.6564 10.2674 13.0792 10.511 13.3763 10.8889C13.6811 11.2669 13.8334 11.7499 13.8334 12.3379C13.8334 13.1191 13.5782 13.7365 13.0678 14.19C12.565 14.6352 11.8756 14.8578 10.9995 14.8578H8.097ZM9.01117 13.1569H10.7138C11.1023 13.1569 11.3842 13.0771 11.5594 12.9175C11.7423 12.7495 11.8337 12.5017 11.8337 12.1741C11.8337 11.8465 11.7423 11.6029 11.5594 11.4433C11.3842 11.2837 11.1023 11.2039 10.7138 11.2039H9.01117V13.1569ZM9.01117 9.50299H10.5081C10.889 9.50299 11.1671 9.42739 11.3423 9.27619C11.5251 9.125 11.6166 8.89401 11.6166 8.58322C11.6166 8.27243 11.5251 8.04563 11.3423 7.90284C11.1671 7.75164 10.889 7.67604 10.5081 7.67604H9.01117V9.50299Z" fill="currentColor"/>
<path d="M0.906352 9.10951C0.670191 9.10951 0.472121 9.05072 0.312141 8.93312C0.152161 8.80712 0.0531261 8.63913 0.0150357 8.42914C-0.0230547 8.21074 0.0112266 7.96715 0.11788 7.69836L2.96324 0.94497C3.10036 0.61738 3.26796 0.377988 3.46603 0.226793C3.67172 0.0755974 3.90407 0 4.16308 0C4.4221 0 4.64683 0.0755974 4.83729 0.226793C5.03536 0.377988 5.20676 0.61738 5.35151 0.94497L8.19686 7.69836C8.31875 7.96715 8.36065 8.21074 8.32256 8.42914C8.29209 8.64753 8.19686 8.81552 8.03688 8.93312C7.88452 9.05072 7.69407 9.10951 7.46553 9.10951C7.1608 9.10951 6.92464 9.03392 6.75704 8.88272C6.59706 8.73153 6.45232 8.48793 6.32281 8.15194L5.70575 6.55179L6.1057 6.87308L6.50565 7.19437H1.79767L2.60899 6.55179L1.99193 8.15194C1.8548 8.48793 1.71387 8.73153 1.56913 8.88272C1.42438 9.03392 1.20346 9.10951 0.906352 9.10951ZM4.14023 2.53252L2.81468 6.02261L2.49472 5.41783H5.82002L5.50006 6.02261L4.16308 2.53252H4.14023Z" fill="currentColor"/>
</svg>
