<svg width="20" height="19" viewBox="0 0 20 19" fill="none" xmlns="http://www.w3.org/2000/svg">
<path d="M14.2217 0.525391C15.4365 0.380676 17.1072 0.798091 18.9395 3.23828C19.2654 3.77718 19.5725 4.85637 19.4844 6.16406C19.3966 7.46655 18.9188 8.96348 17.7129 10.3311L17.7119 10.332L11.7695 17.1113C10.7773 18.2431 9.01693 18.2475 8.01855 17.1211L1.99902 10.3301C1.54743 9.81708 0.940692 8.73024 0.657227 7.41211C0.375636 6.10243 0.423922 4.61774 1.2041 3.2666C2.14841 1.63134 3.35649 0.874912 4.52148 0.679688C5.69934 0.482353 6.90107 0.84762 7.84082 1.58301C7.9818 1.69332 8.0604 1.74549 8.16113 1.83105C8.45131 2.07761 8.71773 2.53292 8.94434 3.05078C9.16861 3.5634 9.3127 4.03231 9.4209 4.3252C9.43744 4.36994 9.46756 4.44436 9.52246 4.51562C9.57173 4.57958 9.72339 4.74378 9.97949 4.72656C10.2106 4.71095 10.3366 4.55581 10.3701 4.51172C10.4157 4.45171 10.4428 4.39115 10.457 4.35742C10.4871 4.28618 10.51 4.20577 10.5254 4.15039C10.5451 4.07934 10.5555 4.03664 10.5713 3.98242C10.6589 3.68109 10.8098 3.21786 11.0156 2.76758C11.2281 2.30281 11.472 1.91482 11.7207 1.70801C12.0178 1.46097 12.9468 0.677296 14.2217 0.525391Z" stroke="currentColor" stroke-linejoin="round"/>
</svg>
