<svg width="20" height="19" viewBox="0 0 20 19" fill="none" xmlns="http://www.w3.org/2000/svg">
<path d="M1.62531 10.6618L7.64447 17.453C8.84256 18.8048 10.9548 18.799 12.1455 17.4407L18.088 10.6618C20.6611 7.74382 20.1466 4.24201 19.3575 2.96154C15.5164 -2.17791 11.998 0.826958 11.4007 1.32366C10.7242 1.88621 10.2737 3.21611 10.0914 3.84325C10.0263 4.06702 9.97023 4.37032 9.88947 4.15172C9.69785 3.63304 9.24939 2.09957 8.48466 1.44996C8.37656 1.35813 8.26051 1.27638 8.14881 1.18897C6.07738 -0.431993 2.78653 -0.472755 0.771424 3.01706C-0.946807 5.99274 0.5964 9.49456 1.62531 10.6618Z" fill="currentColor"/>
</svg>
