<svg width="20" height="20" viewBox="0 0 20 20" fill="none" xmlns="http://www.w3.org/2000/svg">
<path d="M9.11426 0.789551C9.64168 0.403672 10.3583 0.403672 10.8857 0.789551L18.8857 6.64307C19.2718 6.92555 19.5 7.37563 19.5 7.854V17.522C19.5 18.3504 18.8284 19.022 18 19.022H14.6318C13.8034 19.022 13.1318 18.3504 13.1318 17.522V14.2046C13.1317 12.8241 12.0123 11.7047 10.6318 11.7046H8.8418C7.46133 11.7048 6.34196 12.8241 6.3418 14.2046V17.522C6.3418 18.3504 5.67022 19.022 4.8418 19.022H2C1.17157 19.022 0.5 18.3504 0.5 17.522V7.854C0.5 7.37563 0.728195 6.92555 1.11426 6.64307L9.11426 0.789551Z" stroke="currentColor" stroke-linejoin="round"/>
</svg>
