<svg width="20" height="20" viewBox="0 0 20 20" fill="none" xmlns="http://www.w3.org/2000/svg">
<path d="M0 17.5215V7.85336C0 7.21553 0.304229 6.61595 0.81898 6.2393L8.81898 0.385645C9.52225 -0.12894 10.4778 -0.12894 11.181 0.385645L19.181 6.2393C19.6958 6.61595 20 7.21553 20 7.85336V17.5215C20 18.6261 19.1046 19.5215 18 19.5215H14.6316C13.527 19.5215 12.6316 18.6261 12.6316 17.5215V14.2044C12.6316 13.0998 11.7361 12.2044 10.6316 12.2044H8.84211C7.73754 12.2044 6.84211 13.0998 6.84211 14.2044V17.5215C6.84211 18.6261 5.94667 19.5215 4.8421 19.5215H2C0.895431 19.5215 0 18.6261 0 17.5215Z" fill="currentColor"/>
</svg>
