<svg width="21" height="20" viewBox="0 0 21 20" fill="none" xmlns="http://www.w3.org/2000/svg">
<path d="M9.33703 0.690725C9.63638 -0.230586 10.9398 -0.230588 11.2391 0.690722L12.9823 6.05547C13.1161 6.46749 13.5001 6.74645 13.9333 6.74645H19.5741C20.5429 6.74645 20.9456 7.98607 20.1619 8.55547L15.5984 11.8711C15.2479 12.1257 15.1013 12.5771 15.2351 12.9891L16.9782 18.3538C17.2776 19.2752 16.2231 20.0413 15.4394 19.4719L10.8759 16.1563C10.5254 15.9016 10.0508 15.9016 9.7003 16.1563L5.13678 19.4719C4.35306 20.0413 3.29858 19.2752 3.59793 18.3538L5.34105 12.9891C5.47492 12.5771 5.32826 12.1257 4.97777 11.8711L0.414251 8.55547C-0.369463 7.98607 0.0333114 6.74645 1.00203 6.74645H6.64286C7.07609 6.74645 7.46004 6.46749 7.59392 6.05547L9.33703 0.690725Z" fill="currentColor"/>
</svg>
