<svg width="21" height="20" viewBox="0 0 21 20" fill="none" xmlns="http://www.w3.org/2000/svg">
<path d="M9.8125 0.845703C9.96218 0.385045 10.614 0.385051 10.7637 0.845703L12.5068 6.20996C12.7077 6.82798 13.2838 7.24609 13.9336 7.24609H19.5742C20.0585 7.24616 20.26 7.86668 19.8682 8.15137L15.3047 11.4668C14.779 11.8488 14.559 12.5255 14.7598 13.1436L16.5029 18.5088C16.6521 18.9692 16.1251 19.3519 15.7334 19.0674L11.1699 15.752C10.6442 15.37 9.93198 15.37 9.40625 15.752L4.84277 19.0674C4.45105 19.3519 3.92408 18.9692 4.07324 18.5088L5.81641 13.1436C6.01722 12.5255 5.79722 11.8488 5.27148 11.4668L0.708008 8.15137C0.316171 7.86668 0.517653 7.24616 1.00195 7.24609H6.64258C7.29241 7.24609 7.86852 6.82799 8.06934 6.20996L9.8125 0.845703Z" stroke="currentColor"/>
</svg>
