<svg width="16" height="20" viewBox="0 0 16 20" fill="none" xmlns="http://www.w3.org/2000/svg">
<path d="M7.93506 0.5C9.27131 0.5 10.6556 0.85568 11.6929 1.64746C12.7109 2.42459 13.4351 3.65044 13.4351 5.5C13.4351 7.36394 12.9828 8.42445 12.4487 9.03613C11.9154 9.6468 11.2394 9.87976 10.647 9.96582C10.377 10.0051 10.1885 10.2538 10.2231 10.5244C10.2579 10.7949 10.5029 10.9879 10.7739 10.958C11.6644 10.8591 12.6695 11.2674 13.5366 12.3965C14.4079 13.531 15.1187 15.3758 15.353 18.0439C15.4214 18.8222 14.777 19.5 13.9351 19.5H1.93506C1.09536 19.5 0.445381 18.8232 0.503418 18.0371C0.707093 15.2918 1.3487 13.5329 2.21338 12.4688C3.06007 11.4268 4.16185 11 5.43506 11C5.7112 11 5.93506 10.7761 5.93506 10.5C5.93506 10.2239 5.7112 10 5.43506 10C5.38145 10 5.19433 9.96517 4.92041 9.81543C4.65978 9.67295 4.35309 9.44338 4.06006 9.10254C3.48004 8.42789 2.93506 7.2968 2.93506 5.5C2.93506 3.84322 3.54876 2.60518 4.46045 1.77734C5.3796 0.942814 6.63026 0.5 7.93506 0.5Z" stroke="currentColor" stroke-linejoin="round"/>
</svg>
